<svg width="987" height="440" viewBox="0 0 987 440" fill="none" xmlns="http://www.w3.org/2000/svg">
<mask id="mask0_14_631" style="mask-type:alpha" maskUnits="userSpaceOnUse" x="-113" y="37" width="597" height="358">
<path fill-rule="evenodd" clip-rule="evenodd" d="M-98.2708 37C-106.349 37 -112.898 43.5489 -112.898 51.6274V387.373C-112.898 394.334 -104.153 394.591 -98.9828 389.929C-52.5724 348.081 30.9905 290.746 180.664 351.261C297.568 398.526 394.031 399.441 471.586 388.141C478.285 387.165 483.171 381.375 483.171 374.606V51.6275C483.171 43.5489 476.622 37 468.543 37H-98.2708Z" fill="url(#paint0_linear_14_631)"/>
</mask>
<g mask="url(#mask0_14_631)">
<path d="M289.168 397.734L278.183 260.915H224.924C224.924 328.061 224.924 371.016 224.924 389.782L225.691 390.51C246.412 376.27 268.434 413.492 289.168 397.734Z" fill="#3B3B63"/>
<path d="M163.542 346.181L225.691 390.51L225.722 258.339H171.898L163.542 346.181Z" fill="#53537A"/>
<path d="M252.285 321.14C252.285 335.675 238.557 342.88 225.963 342.88C213.369 342.88 199.364 335.675 199.364 321.14" fill="#BC9375"/>
<path d="M225.823 328.657C215.712 328.657 210.795 321.322 210.795 306.242H215.616C215.616 323.896 222.508 323.896 225.823 323.896C229.136 323.896 236.029 323.896 236.029 306.242H240.848C240.848 321.322 235.932 328.657 225.823 328.657Z" fill="white"/>
<path d="M225.69 309.923C228.801 318.011 234.814 322.055 243.729 322.055C252.457 322.055 261.565 317.513 265.713 306.287C271.507 290.585 271.448 268.729 271.448 268.729C271.448 268.729 297.193 236.868 297.193 226.095C297.193 226.095 273.359 226.095 225.69 226.095V309.923Z" fill="#C49A7E"/>
<path d="M153.151 226.095C153.151 238.571 178.673 268.729 178.673 268.729C178.673 268.729 178.61 290.579 184.41 306.287C188.548 317.505 197.666 322.055 206.396 322.055C215.311 322.055 221.742 318.011 225.691 309.923V226.095H153.151Z" fill="#D8B7A0"/>
<path d="M294.119 154.355C274.273 134.239 269.31 92.2922 269.31 92.2922C265.604 105.51 257.55 144.481 257.55 144.481C257.55 144.481 241.907 139.48 225.057 139.453C224.504 139.453 224.504 191.96 225.057 296.975L241.099 285.513L244.081 229.888L261.161 249.154L283.165 255.51C283.165 255.51 291.398 249.707 291.398 249.728C294.893 244.889 296.052 240.766 296.898 238.627C299.954 230.844 293.092 171.323 293.092 171.323C290.656 166.282 294.119 154.355 294.119 154.355Z" fill="#3B3B63"/>
<path d="M194.248 144.478C194.248 144.478 186.19 105.509 182.488 92.2897C182.488 92.2897 177.528 134.237 157.678 154.353C157.678 154.353 161.142 166.281 158.706 171.321C158.706 171.321 151.844 230.844 154.9 238.615C155.744 240.756 156.913 244.877 160.403 249.716C160.403 249.695 168.641 255.5 168.641 255.5L190.639 249.142L207.717 229.879L210.707 285.504L225.705 296.663V139.159C208.793 139.186 194.248 144.478 194.248 144.478Z" fill="#53537A"/>
<path d="M280.233 53.4192C283.526 59.4858 311.833 115.57 311.833 134.992L299.277 168.797C301.402 187.872 305.626 229.318 302.437 237.416C300.468 242.424 292.963 252.728 286.544 261.072L302.437 389.277L286.544 385.533L276.86 290.844C275.953 296.715 274.59 302.984 272.511 308.614C269.763 316.066 264.906 321.712 258.694 325.057C258.33 342.92 241.665 352.558 225.963 352.558C210.132 352.558 193.327 342.928 192.957 325.071C186.732 321.72 181.869 316.073 179.117 308.614C177.122 303.201 175.778 297.209 174.866 291.534L168.556 349.765L152.133 352.558L165.242 261.313C158.772 252.932 151.123 242.475 149.135 237.411C145.946 229.312 150.006 187.872 152.133 168.794L138.832 133.804V132.664C138.832 113.242 167.88 59.4858 171.178 53.4192L180.586 36.3876C186.314 75.8481 189.176 95.5959 189.172 95.631L193.804 127.607L199.899 137.511C205.755 135.558 215.696 132.845 225.763 132.845C235.84 132.845 245.849 135.567 251.73 137.517L257.822 127.609L271.02 36.3876L280.233 53.4192ZM225.963 339.861C232.913 339.861 242.81 336.755 245.281 328.521C245.016 328.529 244.76 328.55 244.495 328.55C243.143 328.55 241.878 328.425 240.652 328.259C237.067 333.187 231.482 334.682 225.825 334.682C220.178 334.682 214.604 333.173 211.026 328.253C209.791 328.426 208.513 328.55 207.149 328.55C206.889 328.55 206.638 328.529 206.382 328.521C208.878 336.755 218.909 339.861 225.963 339.861ZM217.825 326.327C219.98 327.923 222.644 328.811 225.83 328.811C228.999 328.811 231.65 327.917 233.803 326.327C232.086 325.573 230.533 324.674 229.164 323.694C227.924 324.056 226.738 324.048 225.824 324.048C224.905 324.048 223.706 324.048 222.457 323.686C221.091 324.674 219.541 325.573 217.825 326.327ZM267.206 264.898C275.745 254.419 288.599 237.543 290.461 232.819C291.865 227.957 289.47 195.718 286.422 168.698L286.254 167.2L288.773 160.487C280.467 151.737 274.672 139.747 270.712 128.424L270.198 131.981L257.083 153.279L251.961 151.122C251.835 151.068 238.463 145.536 225.771 145.536C212.996 145.536 199.841 151.063 199.712 151.118L194.582 153.293L181.452 131.985L181.063 129.256C177.061 140.469 171.26 152.249 162.992 160.808L165.399 167.204L165.231 168.704C162.181 195.718 159.786 227.957 161.237 232.942C163.052 237.551 175.908 254.427 184.442 264.898L185.866 266.647L185.858 268.889C185.858 269.099 185.883 289.829 191.208 304.255C195.073 314.718 203.648 315.836 207.16 315.836C215.989 315.836 219.725 307.832 219.878 307.491C221.947 303.469 222.982 296.861 222.982 287.667H228.32C228.32 295.054 229.433 301.676 231.658 307.534C231.793 307.824 235.622 315.856 244.495 315.856C248 315.856 256.578 314.726 260.44 304.262C265.781 289.785 265.788 269.099 265.788 268.896L265.782 266.655L267.206 264.898Z" fill="#333152"/>
<path d="M265.749 208.555H246.469H240.044V208.823C240.044 217.69 247.806 224.874 256.911 224.874C266.019 224.874 273.781 217.689 273.781 208.823V208.555H265.749Z" fill="#333152"/>
<path d="M246.471 208.555V208.823C246.471 214.098 250.769 218.372 256.112 218.372C261.455 218.372 265.752 214.098 265.752 208.823V208.555H246.471Z" fill="white"/>
<path d="M254.568 208.555C254.524 208.555 254.486 208.577 254.447 208.584C255.007 208.701 255.318 209.955 255.197 210.79C255.016 212.067 253.915 212.953 252.654 212.975C253.021 214.643 254.398 215.985 256.227 216.239C258.565 216.566 260.725 214.982 261.056 212.676C261.295 210.978 260.468 208.555 259.086 208.555H254.568Z" fill="#333152"/>
<path d="M203.697 208.555H184.42H177.993V208.823C177.993 217.69 185.757 224.874 194.86 224.874C203.969 224.874 211.732 217.689 211.732 208.823V208.555H203.697Z" fill="#333152"/>
<path d="M184.423 208.555V208.823C184.423 214.098 188.725 218.372 194.06 218.372C199.405 218.372 203.702 214.098 203.702 208.823V208.555H184.423Z" fill="white"/>
<path d="M197.037 208.555H192.515C192.475 208.555 192.433 208.577 192.397 208.584C192.955 208.701 193.264 209.955 193.147 210.79C192.965 212.067 191.87 212.953 190.601 212.975C190.973 214.643 192.35 215.985 194.176 216.239C196.512 216.566 198.677 214.982 199.003 212.676C199.245 210.978 198.419 208.555 197.037 208.555Z" fill="#333152"/>
<path d="M263.811 200.986C264.891 199.818 274.054 189.55 261.799 189.55C250.725 189.55 242.757 198.374 240.646 200.986H263.811Z" fill="#C49A7E"/>
<path d="M210.951 200.986C208.841 198.374 200.873 189.55 189.796 189.55C177.547 189.55 186.71 199.818 187.784 200.986H210.951Z" fill="#D8B7A0"/>
<path d="M152.038 131.631C152.766 121.557 163.378 97.4191 173.502 77.0769L176.2 95.6763C175.171 102.63 170.468 129.904 157.852 147.095L152.038 131.631Z" fill="#D8B7A0"/>
<path d="M275.664 94.2269L278.15 77.0776C288.272 97.4182 298.891 121.557 299.619 131.632L293.941 146.728C280.31 127.804 276.034 97.0386 275.664 94.2269Z" fill="#C49A7E"/>
<mask id="mask1_14_631" style="mask-type:alpha" maskUnits="userSpaceOnUse" x="206" y="278" width="39" height="27">
<path d="M216.372 298.963C211.618 295.401 206.741 290.906 206.741 287.458C206.741 285.193 210.797 278.213 210.797 278.213H240.951C240.951 278.213 244.906 284.402 244.906 287.458C244.906 290.669 239.984 295.04 235.072 298.602C233.4 295.759 231.273 295.265 230.29 297.506C229.783 298.667 229.683 300.339 229.93 302.088C227.256 303.795 225.301 304.894 225.301 304.894C225.301 304.894 223.792 304.023 221.633 302.622C221.982 300.683 221.915 298.785 221.354 297.506C220.363 295.235 218.193 295.773 216.508 298.718C216.462 298.798 216.417 298.88 216.372 298.963Z" fill="white"/>
</mask>
<g mask="url(#mask1_14_631)">
<path d="M216.372 298.963C211.618 295.4 206.742 290.906 206.742 287.458C206.742 285.193 210.797 278.213 210.797 278.213H240.951C240.951 278.213 244.906 284.401 244.906 287.458C244.906 290.669 239.984 295.039 235.072 298.602C233.4 295.759 231.273 295.265 230.29 297.506C229.783 298.667 229.683 300.339 229.931 302.088C227.256 303.794 225.302 304.894 225.302 304.894C225.302 304.894 223.792 304.023 221.634 302.621C221.982 300.683 221.915 298.784 221.355 297.506C220.363 295.235 218.194 295.772 216.509 298.717C216.462 298.798 216.417 298.88 216.372 298.963Z" fill="#333152"/>
</g>
<g filter="url(#filter0_d_14_631)">
<path fill-rule="evenodd" clip-rule="evenodd" d="M291.407 304.861C291.94 304.994 292.412 305.318 292.729 305.781C297.943 314.109 306.618 319.659 316.366 320.902C326.111 322.146 335.901 318.954 343.04 312.201L340.549 311.562L325.077 296.089C324.396 295.417 324.232 294.377 324.676 293.528L334.769 273.743L334.768 273.744C335.203 272.912 336.129 272.463 337.052 272.634L349.985 274.948C346.506 267.476 340.334 261.591 332.706 258.469C325.078 255.347 316.553 255.218 308.835 258.106C301.114 260.996 294.769 266.69 291.064 274.052C290.711 274.802 289.949 275.275 289.12 275.255L278.14 275.048L277.726 274.119L121.083 273.236L121.256 303.979L291.441 304.938L291.407 304.861Z" fill="url(#paint1_linear_14_631)"/>
</g>
<mask id="mask2_14_631" style="mask-type:alpha" maskUnits="userSpaceOnUse" x="174" y="259" width="108" height="76">
<path d="M179.955 312.454C175.371 303.555 174.225 286.499 174.225 279.083V261.218C210.292 258.858 282.292 257.712 281.752 272.004C281.213 286.297 272.314 308.072 267.932 317.173C264.337 316.723 256.471 318.589 253.775 329.645C250.404 343.465 185.685 323.577 179.955 312.454Z" fill="#C4C4C4"/>
</mask>
<g mask="url(#mask2_14_631)">
<path d="M287.874 345.514L278.183 260.915H224.924C224.924 328.061 224.924 371.016 224.924 389.782L225.692 390.51C246.412 376.27 267.139 361.271 287.874 345.514Z" fill="#3B3B63"/>
<path d="M163.543 346.181L225.692 390.51L225.722 258.339H171.898L163.543 346.181Z" fill="#53537A"/>
<path d="M252.286 321.14C252.286 335.675 238.557 342.88 225.963 342.88C213.37 342.88 199.364 335.675 199.364 321.14" fill="#BC9375"/>
<path d="M225.823 328.657C215.712 328.657 210.796 321.322 210.796 306.242H215.617C215.617 323.897 222.508 323.897 225.823 323.897C229.136 323.897 236.029 323.897 236.029 306.242H240.849C240.849 321.322 235.932 328.657 225.823 328.657Z" fill="white"/>
<path d="M225.691 309.923C228.801 318.011 234.814 322.055 243.729 322.055C252.457 322.055 261.565 317.513 265.713 306.288C271.507 290.585 271.449 268.729 271.449 268.729C271.449 268.729 297.194 236.868 297.194 226.095C297.194 226.095 273.359 226.095 225.691 226.095V309.923Z" fill="#C49A7E"/>
<path d="M153.151 226.095C153.151 238.571 178.673 268.729 178.673 268.729C178.673 268.729 178.611 290.579 184.41 306.288C188.549 317.505 197.666 322.055 206.396 322.055C215.311 322.055 221.743 318.011 225.691 309.923V226.095H153.151Z" fill="#D8B7A0"/>
<path d="M294.12 154.355C274.273 134.239 269.31 92.2924 269.31 92.2924C265.605 105.51 257.551 144.481 257.551 144.481C257.551 144.481 241.907 139.48 225.058 139.453C224.504 139.453 224.504 191.961 225.058 296.975L241.099 285.513L244.081 229.888L261.162 249.154L283.165 255.51C283.165 255.51 291.398 249.707 291.398 249.728C294.893 244.889 296.052 240.766 296.898 238.627C299.954 230.844 293.092 171.323 293.092 171.323C290.656 166.282 294.12 154.355 294.12 154.355Z" fill="#3B3B63"/>
<path d="M194.248 144.478C194.248 144.478 186.191 105.509 182.488 92.2898C182.488 92.2898 177.528 134.237 157.679 154.353C157.679 154.353 161.142 166.281 158.706 171.321C158.706 171.321 151.844 230.844 154.9 238.615C155.744 240.756 156.913 244.877 160.404 249.716C160.404 249.695 168.641 255.5 168.641 255.5L190.64 249.142L207.717 229.879L210.707 285.504L225.706 296.663V139.159C208.793 139.186 194.248 144.478 194.248 144.478Z" fill="#53537A"/>
<path d="M280.233 53.4192C283.526 59.4858 311.833 115.57 311.833 134.992L299.278 168.797C301.402 187.872 305.627 229.318 302.437 237.416C300.469 242.424 292.964 252.728 286.544 261.072L295.32 340.257L283.457 348.702L276.86 290.844C275.954 296.715 274.59 302.984 272.512 308.614C269.763 316.066 264.907 321.712 258.694 325.057C258.33 342.921 241.666 352.558 225.964 352.558C210.132 352.558 193.328 342.928 192.957 325.071C186.733 321.72 181.869 316.073 179.118 308.614C177.122 303.201 175.778 297.209 174.867 291.535L168.556 349.766L156.628 341.183L165.242 261.313C158.773 252.932 151.124 242.475 149.136 237.411C145.947 229.312 150.007 187.872 152.134 168.794L138.832 133.804V132.664C138.832 113.242 167.881 59.4858 171.178 53.4192L180.586 36.3877C186.314 75.8481 189.176 95.5959 189.172 95.6311L193.805 127.607L199.899 137.511C205.755 135.558 215.696 132.845 225.763 132.845C235.841 132.845 245.849 135.567 251.731 137.518L257.822 127.609L271.02 36.3877L280.233 53.4192ZM225.964 339.861C232.913 339.861 242.811 336.755 245.281 328.521C245.016 328.529 244.761 328.55 244.496 328.55C243.143 328.55 241.879 328.425 240.652 328.259C237.068 333.187 231.483 334.682 225.826 334.682C220.178 334.682 214.605 333.173 211.026 328.253C209.792 328.427 208.513 328.55 207.15 328.55C206.889 328.55 206.638 328.529 206.383 328.521C208.879 336.755 218.909 339.861 225.964 339.861ZM217.825 326.327C219.981 327.923 222.644 328.811 225.831 328.811C228.999 328.811 231.651 327.917 233.803 326.327C232.087 325.573 230.534 324.674 229.164 323.694C227.925 324.056 226.739 324.049 225.824 324.049C224.905 324.049 223.706 324.049 222.458 323.686C221.091 324.674 219.541 325.573 217.825 326.327ZM267.206 264.898C275.745 254.42 288.599 237.543 290.462 232.819C291.866 227.957 289.47 195.718 286.422 168.698L286.254 167.2L288.774 160.487C280.467 151.737 274.672 139.747 270.713 128.424L270.198 131.981L257.083 153.279L251.961 151.122C251.836 151.068 238.464 145.536 225.771 145.536C212.997 145.536 199.841 151.063 199.712 151.118L194.583 153.293L181.452 131.985L181.063 129.256C177.061 140.469 171.26 152.249 162.993 160.808L165.399 167.204L165.231 168.704C162.182 195.718 159.786 227.957 161.237 232.942C163.052 237.551 175.908 254.427 184.442 264.898L185.867 266.647L185.859 268.889C185.859 269.099 185.884 289.829 191.208 304.255C195.074 314.718 203.648 315.836 207.161 315.836C215.99 315.836 219.725 307.832 219.879 307.491C221.948 303.469 222.982 296.861 222.982 287.667H228.32C228.32 295.054 229.433 301.676 231.658 307.534C231.793 307.824 235.623 315.857 244.496 315.857C248 315.857 256.578 314.726 260.44 304.263C265.782 289.786 265.788 269.099 265.788 268.897L265.782 266.655L267.206 264.898Z" fill="#333152"/>
<mask id="mask3_14_631" style="mask-type:alpha" maskUnits="userSpaceOnUse" x="206" y="278" width="39" height="27">
<path d="M216.372 298.963C211.618 295.4 206.742 290.906 206.742 287.458C206.742 285.193 210.797 278.212 210.797 278.212H240.951C240.951 278.212 244.906 284.401 244.906 287.458C244.906 290.668 239.984 295.039 235.072 298.602C233.4 295.759 231.273 295.265 230.29 297.506C229.783 298.667 229.683 300.338 229.931 302.088C227.256 303.794 225.301 304.894 225.301 304.894C225.301 304.894 223.792 304.023 221.634 302.621C221.982 300.682 221.915 298.784 221.354 297.506C220.363 295.235 218.193 295.772 216.509 298.717C216.462 298.798 216.417 298.88 216.372 298.963Z" fill="white"/>
</mask>
<g mask="url(#mask3_14_631)">
<path d="M216.373 298.963C211.619 295.4 206.742 290.906 206.742 287.458C206.742 285.193 210.797 278.212 210.797 278.212H240.952C240.952 278.212 244.907 284.401 244.907 287.458C244.907 290.668 239.984 295.039 235.073 298.602C233.401 295.759 231.274 295.265 230.291 297.506C229.783 298.667 229.683 300.338 229.931 302.088C227.257 303.794 225.302 304.894 225.302 304.894C225.302 304.894 223.792 304.023 221.634 302.621C221.982 300.682 221.915 298.784 221.355 297.506C220.364 295.235 218.194 295.772 216.509 298.717C216.463 298.798 216.417 298.88 216.373 298.963Z" fill="#333152"/>
</g>
</g>
</g>
<path d="M77.5703 285.535C79.2598 285.148 80.4365 284.518 81.1004 283.643C81.7707 282.803 81.9964 281.795 81.7774 280.62C81.6036 279.687 81.0853 277.871 80.2227 275.17C80.1365 274.9 79.8648 274.021 79.4077 272.533C78.9571 271.079 78.6191 269.747 78.3937 268.538C77.8399 265.566 78.315 263.099 79.819 261.138C81.3166 259.142 83.5767 257.863 86.5994 257.3L90.3517 256.601L91.704 263.858L89.6715 264.237C88.5597 264.444 87.8089 264.852 87.4191 265.461C87.0228 266.036 86.9181 266.824 87.1048 267.827C87.2529 268.622 87.7107 270.306 88.478 272.881C89.4154 276.175 89.9806 278.341 90.1738 279.378C90.5344 281.313 90.3758 282.97 89.6978 284.348C88.9916 285.767 87.7358 286.841 85.9305 287.571L85.9498 287.675C87.8904 287.671 89.4456 288.203 90.6155 289.273C91.7506 290.349 92.4953 291.837 92.8495 293.738C93.0427 294.775 93.2952 296.998 93.6072 300.409C93.8315 303.157 94.0146 304.911 94.1562 305.671C94.343 306.673 94.7246 307.371 95.3012 307.764C95.8778 308.157 96.7219 308.251 97.8337 308.043L99.8662 307.665L101.219 314.922L97.4662 315.622C94.4436 316.185 91.8743 315.805 89.7586 314.483C87.6493 313.195 86.3209 311.083 85.7735 308.145C85.5482 306.935 85.3806 305.554 85.271 304.001C85.1678 302.482 85.1079 301.582 85.0911 301.299C84.9233 298.469 84.7525 296.588 84.5787 295.654C84.3468 294.41 83.767 293.517 82.8391 292.975C81.9176 292.467 80.5993 292.337 78.884 292.585L77.5703 285.535Z" fill="url(#paint2_linear_14_631)"/>
<path d="M390.821 289.198C389.132 288.812 387.955 288.181 387.291 287.306C386.621 286.466 386.395 285.459 386.614 284.284C386.788 283.351 387.306 281.534 388.169 278.834C388.255 278.564 388.527 277.685 388.984 276.196C389.434 274.742 389.772 273.411 389.998 272.201C390.551 269.229 390.076 266.762 388.572 264.801C387.075 262.806 384.815 261.526 381.792 260.963L378.04 260.264L376.687 267.522L378.72 267.9C379.832 268.108 380.582 268.516 380.972 269.125C381.368 269.699 381.473 270.488 381.286 271.49C381.138 272.285 380.681 273.97 379.913 276.545C378.976 279.839 378.411 282.004 378.218 283.041C377.857 284.976 378.016 286.633 378.693 288.011C379.4 289.43 380.656 290.504 382.461 291.234L382.442 291.338C380.501 291.334 378.946 291.867 377.776 292.936C376.641 294.012 375.896 295.5 375.542 297.401C375.349 298.438 375.096 300.662 374.784 304.072C374.56 306.82 374.377 308.574 374.235 309.334C374.048 310.337 373.667 311.034 373.09 311.428C372.514 311.821 371.669 311.914 370.558 311.707L368.525 311.328L367.173 318.586L370.925 319.285C373.948 319.848 376.517 319.469 378.633 318.146C380.742 316.859 382.07 314.746 382.618 311.808C382.843 310.598 383.011 309.217 383.12 307.664C383.223 306.146 383.283 305.245 383.3 304.962C383.468 302.132 383.639 300.251 383.813 299.318C384.044 298.074 384.624 297.18 385.552 296.638C386.474 296.13 387.792 296 389.507 296.248L390.821 289.198Z" fill="url(#paint3_linear_14_631)"/>
<g filter="url(#filter1_d_14_631)">
<path d="M356.683 215.489C358.498 215.148 359.68 213.341 359.325 211.453C358.97 209.564 357.212 208.31 355.398 208.651C353.584 208.992 352.401 210.799 352.756 212.688C353.111 214.576 354.869 215.83 356.683 215.489Z" fill="url(#paint4_linear_14_631)"/>
<path d="M411.945 310.984C413.759 310.643 414.942 308.836 414.587 306.948C414.232 305.06 412.473 303.805 410.659 304.146C408.845 304.487 407.662 306.294 408.017 308.183C408.372 310.071 410.131 311.325 411.945 310.984Z" fill="url(#paint5_linear_14_631)"/>
<path d="M369.638 155.26L365.885 155.965L365.15 152.058C365.02 151.367 364.632 150.754 364.071 150.354C363.51 149.953 362.821 149.798 362.158 149.923C361.494 150.048 360.909 150.442 360.532 151.019C360.154 151.596 360.015 152.308 360.145 152.999L360.879 156.906L357.126 157.612C356.462 157.737 355.877 158.131 355.499 158.707C355.122 159.284 354.983 159.996 355.113 160.687C355.243 161.378 355.631 161.991 356.192 162.392C356.753 162.792 357.441 162.947 358.105 162.822L361.859 162.116L362.593 166.024C362.723 166.715 363.111 167.328 363.673 167.728C364.234 168.129 364.922 168.283 365.586 168.159C366.249 168.034 366.834 167.64 367.212 167.063C367.589 166.486 367.728 165.774 367.598 165.083L366.864 161.175L370.618 160.47C371.281 160.345 371.866 159.951 372.244 159.374C372.621 158.797 372.761 158.085 372.631 157.394C372.501 156.703 372.113 156.09 371.551 155.69C370.99 155.29 370.302 155.135 369.638 155.26Z" fill="#F99048"/>
<path d="M430.798 200.851C431.11 200.68 431.36 200.409 431.512 200.079C431.663 199.748 431.709 199.374 431.642 199.011C431.573 198.649 431.394 198.317 431.133 198.064C430.871 197.811 430.54 197.649 430.187 197.603C426.752 197.21 423.453 195.935 420.59 193.892C417.727 191.85 415.39 189.104 413.791 185.906C413.621 185.58 413.357 185.316 413.036 185.154C412.715 184.991 412.354 184.938 412.006 185.002C411.658 185.069 411.341 185.25 411.101 185.518C410.861 185.785 410.71 186.127 410.67 186.492C410.342 190.053 409.162 193.46 407.235 196.403C405.309 199.346 402.699 201.732 399.64 203.345C399.333 203.519 399.088 203.791 398.94 204.12C398.792 204.45 398.749 204.822 398.816 205.182C398.884 205.542 399.059 205.872 399.317 206.125C399.574 206.379 399.901 206.543 400.251 206.593C403.686 206.986 406.985 208.261 409.849 210.304C412.712 212.347 415.049 215.092 416.648 218.29C416.817 218.617 417.082 218.88 417.402 219.043C417.723 219.205 418.084 219.258 418.433 219.194C418.781 219.127 419.098 218.947 419.338 218.679C419.578 218.411 419.729 218.07 419.768 217.704C420.082 214.139 421.257 210.726 423.185 207.781C425.112 204.835 427.731 202.452 430.798 200.851Z" fill="#4BD6B5"/>
</g>
<path d="M44.6507 210.669C44.999 210.539 45.3001 210.291 45.5104 209.961C45.7207 209.63 45.8293 209.234 45.8206 208.83C45.8089 208.426 45.6804 208.036 45.4537 207.717C45.227 207.397 44.9138 207.164 44.5594 207.052C41.0983 206.022 37.9226 204.062 35.3205 201.35C32.7184 198.637 30.7721 195.259 29.6584 191.521C29.5382 191.138 29.3103 190.807 29.0077 190.575C28.7051 190.343 28.3435 190.222 27.9751 190.23C27.6068 190.241 27.2518 190.38 26.9613 190.627C26.6708 190.874 26.4599 191.216 26.3592 191.604C25.4356 195.394 23.6624 198.866 21.2005 201.706C18.7386 204.546 15.6659 206.664 12.2613 207.868C11.917 208.002 11.6206 208.252 11.4144 208.582C11.2082 208.912 11.1026 209.306 11.1127 209.707C11.1228 210.108 11.2481 210.495 11.4708 210.815C11.6934 211.134 12.002 211.369 12.3526 211.485C15.8137 212.515 18.9893 214.476 21.5915 217.188C24.1936 219.9 26.1398 223.278 27.2535 227.016C27.3738 227.399 27.6017 227.73 27.9042 227.962C28.2068 228.194 28.5685 228.315 28.9368 228.307C29.3051 228.297 29.6602 228.158 29.9507 227.91C30.2412 227.663 30.452 227.321 30.5528 226.933C31.4626 223.136 33.231 219.656 35.6949 216.814C38.1587 213.971 41.2387 211.858 44.6507 210.669Z" fill="#4BD6B5"/>
<path d="M56.9598 263.454C58.7562 263.409 60.1741 261.856 60.1268 259.986C60.0796 258.116 58.5851 256.637 56.7888 256.683C54.9925 256.728 53.5746 258.281 53.6218 260.151C53.6691 262.02 55.1635 263.5 56.9598 263.454Z" fill="url(#paint6_linear_14_631)"/>
<path d="M80.4035 209.186C82.1999 209.141 83.6178 207.588 83.5705 205.719C83.5233 203.849 82.0288 202.37 80.2325 202.415C78.4362 202.46 77.0183 204.013 77.0655 205.883C77.1127 207.753 78.6072 209.232 80.4035 209.186Z" fill="url(#paint7_linear_14_631)"/>
<path d="M83.1102 154.528L79.393 154.622L79.2953 150.753C79.278 150.069 79.0004 149.419 78.5234 148.947C78.0464 148.475 77.4093 148.219 76.752 148.236C76.0948 148.253 75.4713 148.54 75.0188 149.036C74.5663 149.531 74.3218 150.194 74.3391 150.878L74.4368 154.747L70.7197 154.841C70.0624 154.858 69.439 155.146 68.9865 155.641C68.5339 156.137 68.2894 156.799 68.3067 157.484C68.324 158.168 68.6016 158.817 69.0786 159.289C69.5555 159.761 70.1927 160.017 70.85 160.001L74.5671 159.907L74.6648 163.776C74.6821 164.46 74.9598 165.11 75.4367 165.582C75.9137 166.054 76.5509 166.31 77.2081 166.293C77.8653 166.276 78.4888 165.989 78.9413 165.493C79.3938 164.998 79.6383 164.335 79.621 163.651L79.5233 159.781L83.2405 159.688C83.8977 159.671 84.5212 159.383 84.9737 158.888C85.4262 158.392 85.6707 157.73 85.6534 157.045C85.6361 156.361 85.3585 155.712 84.8815 155.24C84.4046 154.768 83.7674 154.512 83.1102 154.528Z" fill="#F99048"/>
<g filter="url(#filter2_d_14_631)">
<path d="M513.7 256C517.767 256.867 521.033 258.9 523.5 262.1C525.967 265.233 527.2 268.833 527.2 272.9C527.2 278.767 525.133 283.433 521 286.9C516.933 290.3 511.233 292 503.9 292H471.2V221.8H502.8C509.933 221.8 515.5 223.433 519.5 226.7C523.567 229.967 525.6 234.4 525.6 240C525.6 244.133 524.5 247.567 522.3 250.3C520.167 253.033 517.3 254.933 513.7 256ZM488.3 250.2H499.5C502.3 250.2 504.433 249.6 505.9 248.4C507.433 247.133 508.2 245.3 508.2 242.9C508.2 240.5 507.433 238.667 505.9 237.4C504.433 236.133 502.3 235.5 499.5 235.5H488.3V250.2ZM500.9 278.2C503.767 278.2 505.967 277.567 507.5 276.3C509.1 274.967 509.9 273.067 509.9 270.6C509.9 268.133 509.067 266.2 507.4 264.8C505.8 263.4 503.567 262.7 500.7 262.7H488.3V278.2H500.9Z" fill="url(#paint8_linear_14_631)"/>
<path d="M554.128 221.8V263.8C554.128 268 555.161 271.233 557.228 273.5C559.295 275.767 562.328 276.9 566.328 276.9C570.328 276.9 573.395 275.767 575.528 273.5C577.661 271.233 578.728 268 578.728 263.8V221.8H595.828V263.7C595.828 269.967 594.495 275.267 591.828 279.6C589.161 283.933 585.561 287.2 581.028 289.4C576.561 291.6 571.561 292.7 566.028 292.7C560.495 292.7 555.528 291.633 551.128 289.5C546.795 287.3 543.361 284.033 540.828 279.7C538.295 275.3 537.028 269.967 537.028 263.7V221.8H554.128Z" fill="url(#paint9_linear_14_631)"/>
<path d="M654.646 244C653.379 241.667 651.546 239.9 649.146 238.7C646.812 237.433 644.046 236.8 640.846 236.8C635.312 236.8 630.879 238.633 627.546 242.3C624.212 245.9 622.546 250.733 622.546 256.8C622.546 263.267 624.279 268.333 627.746 272C631.279 275.6 636.112 277.4 642.246 277.4C646.446 277.4 649.979 276.333 652.846 274.2C655.779 272.067 657.912 269 659.246 265H637.546V252.4H674.746V268.3C673.479 272.567 671.312 276.533 668.246 280.2C665.246 283.867 661.412 286.833 656.746 289.1C652.079 291.367 646.812 292.5 640.946 292.5C634.012 292.5 627.812 291 622.346 288C616.946 284.933 612.712 280.7 609.646 275.3C606.646 269.9 605.146 263.733 605.146 256.8C605.146 249.867 606.646 243.7 609.646 238.3C612.712 232.833 616.946 228.6 622.346 225.6C627.746 222.533 633.912 221 640.846 221C649.246 221 656.312 223.033 662.046 227.1C667.846 231.167 671.679 236.8 673.546 244H654.646Z" fill="url(#paint10_linear_14_631)"/>
<path d="M748.329 256C752.396 256.867 755.662 258.9 758.129 262.1C760.596 265.233 761.829 268.833 761.829 272.9C761.829 278.767 759.762 283.433 755.629 286.9C751.562 290.3 745.862 292 738.529 292H705.829V221.8H737.429C744.562 221.8 750.129 223.433 754.129 226.7C758.196 229.967 760.229 234.4 760.229 240C760.229 244.133 759.129 247.567 756.929 250.3C754.796 253.033 751.929 254.933 748.329 256ZM722.929 250.2H734.129C736.929 250.2 739.062 249.6 740.529 248.4C742.062 247.133 742.829 245.3 742.829 242.9C742.829 240.5 742.062 238.667 740.529 237.4C739.062 236.133 736.929 235.5 734.129 235.5H722.929V250.2ZM735.529 278.2C738.396 278.2 740.596 277.567 742.129 276.3C743.729 274.967 744.529 273.067 744.529 270.6C744.529 268.133 743.696 266.2 742.029 264.8C740.429 263.4 738.196 262.7 735.329 262.7H722.929V278.2H735.529Z" fill="url(#paint11_linear_14_631)"/>
<path d="M815.657 279.6H789.457L785.257 292H767.357L792.757 221.8H812.557L837.957 292H819.857L815.657 279.6ZM811.257 266.4L802.557 240.7L793.957 266.4H811.257Z" fill="url(#paint12_linear_14_631)"/>
<path d="M871.298 292.7C866.164 292.7 861.564 291.867 857.497 290.2C853.431 288.533 850.164 286.067 847.698 282.8C845.298 279.533 844.031 275.6 843.898 271H862.098C862.364 273.6 863.264 275.6 864.798 277C866.331 278.333 868.331 279 870.798 279C873.331 279 875.331 278.433 876.798 277.3C878.264 276.1 878.997 274.467 878.997 272.4C878.997 270.667 878.398 269.233 877.198 268.1C876.064 266.967 874.631 266.033 872.898 265.3C871.231 264.567 868.831 263.733 865.698 262.8C861.164 261.4 857.464 260 854.598 258.6C851.731 257.2 849.264 255.133 847.198 252.4C845.131 249.667 844.098 246.1 844.098 241.7C844.098 235.167 846.464 230.067 851.198 226.4C855.931 222.667 862.098 220.8 869.698 220.8C877.431 220.8 883.664 222.667 888.398 226.4C893.131 230.067 895.664 235.2 895.997 241.8H877.497C877.364 239.533 876.531 237.767 874.997 236.5C873.464 235.167 871.497 234.5 869.098 234.5C867.031 234.5 865.364 235.067 864.098 236.2C862.831 237.267 862.198 238.833 862.198 240.9C862.198 243.167 863.264 244.933 865.398 246.2C867.531 247.467 870.864 248.833 875.398 250.3C879.931 251.833 883.598 253.3 886.398 254.7C889.264 256.1 891.731 258.133 893.798 260.8C895.864 263.467 896.898 266.9 896.898 271.1C896.898 275.1 895.864 278.733 893.798 282C891.798 285.267 888.864 287.867 884.997 289.8C881.131 291.733 876.564 292.7 871.298 292.7Z" fill="url(#paint13_linear_14_631)"/>
<path d="M968.431 221.8V292H951.331V263.1H924.731V292H907.631V221.8H924.731V249.3H951.331V221.8H968.431Z" fill="url(#paint14_linear_14_631)"/>
</g>
<g filter="url(#filter3_d_14_631)">
<rect x="470" y="147" width="135" height="59" rx="6" fill="url(#paint15_linear_14_631)"/>
</g>
<path d="M497.65 187.4H508.85V194H489.1V158.9H497.65V187.4Z" fill="#030328"/>
<path d="M521.688 158.9V194H513.138V158.9H521.688Z" fill="#030328"/>
<path d="M561.044 158.9L548.594 194H537.894L525.444 158.9H534.544L543.244 185.4L551.994 158.9H561.044Z" fill="#030328"/>
<path d="M573.378 165.75V172.85H584.828V179.45H573.378V187.15H586.328V194H564.828V158.9H586.328V165.75H573.378Z" fill="#030328"/>
<defs>
<filter id="filter0_d_14_631" x="110.023" y="252.87" width="251.021" height="87.2548" filterUnits="userSpaceOnUse" color-interpolation-filters="sRGB">
<feFlood flood-opacity="0" result="BackgroundImageFix"/>
<feColorMatrix in="SourceAlpha" type="matrix" values="0 0 0 0 0 0 0 0 0 0 0 0 0 0 0 0 0 0 127 0" result="hardAlpha"/>
<feOffset dy="7.8995"/>
<feGaussianBlur stdDeviation="5.52965"/>
<feComposite in2="hardAlpha" operator="out"/>
<feColorMatrix type="matrix" values="0 0 0 0 0.129412 0 0 0 0 0.129412 0 0 0 0 0.298039 0 0 0 0.3 0"/>
<feBlend mode="normal" in2="BackgroundImageFix" result="effect1_dropShadow_14_631"/>
<feBlend mode="normal" in="SourceGraphic" in2="effect1_dropShadow_14_631" result="shape"/>
</filter>
<filter id="filter1_d_14_631" x="339.166" y="139.736" width="106.034" height="188.214" filterUnits="userSpaceOnUse" color-interpolation-filters="sRGB">
<feFlood flood-opacity="0" result="BackgroundImageFix"/>
<feColorMatrix in="SourceAlpha" type="matrix" values="0 0 0 0 0 0 0 0 0 0 0 0 0 0 0 0 0 0 127 0" result="hardAlpha"/>
<feOffset dy="3.38182"/>
<feGaussianBlur stdDeviation="6.76364"/>
<feComposite in2="hardAlpha" operator="out"/>
<feColorMatrix type="matrix" values="0 0 0 0 0.129412 0 0 0 0 0.129412 0 0 0 0 0.298039 0 0 0 0.2 0"/>
<feBlend mode="normal" in2="BackgroundImageFix" result="effect1_dropShadow_14_631"/>
<feBlend mode="normal" in="SourceGraphic" in2="effect1_dropShadow_14_631" result="shape"/>
</filter>
<filter id="filter2_d_14_631" x="464.695" y="218.198" width="510.24" height="84.909" filterUnits="userSpaceOnUse" color-interpolation-filters="sRGB">
<feFlood flood-opacity="0" result="BackgroundImageFix"/>
<feColorMatrix in="SourceAlpha" type="matrix" values="0 0 0 0 0 0 0 0 0 0 0 0 0 0 0 0 0 0 127 0" result="hardAlpha"/>
<feOffset dy="3.90271"/>
<feGaussianBlur stdDeviation="3.25226"/>
<feComposite in2="hardAlpha" operator="out"/>
<feColorMatrix type="matrix" values="0 0 0 0 0 0 0 0 0 0 0 0 0 0 0 0 0 0 0.2 0"/>
<feBlend mode="normal" in2="BackgroundImageFix" result="effect1_dropShadow_14_631"/>
<feBlend mode="normal" in="SourceGraphic" in2="effect1_dropShadow_14_631" result="shape"/>
</filter>
<filter id="filter3_d_14_631" x="463.495" y="144.398" width="148.009" height="72.009" filterUnits="userSpaceOnUse" color-interpolation-filters="sRGB">
<feFlood flood-opacity="0" result="BackgroundImageFix"/>
<feColorMatrix in="SourceAlpha" type="matrix" values="0 0 0 0 0 0 0 0 0 0 0 0 0 0 0 0 0 0 127 0" result="hardAlpha"/>
<feOffset dy="3.90271"/>
<feGaussianBlur stdDeviation="3.25226"/>
<feComposite in2="hardAlpha" operator="out"/>
<feColorMatrix type="matrix" values="0 0 0 0 0 0 0 0 0 0 0 0 0 0 0 0 0 0 0.2 0"/>
<feBlend mode="normal" in2="BackgroundImageFix" result="effect1_dropShadow_14_631"/>
<feBlend mode="normal" in="SourceGraphic" in2="effect1_dropShadow_14_631" result="shape"/>
</filter>
<linearGradient id="paint0_linear_14_631" x1="-112.898" y1="37" x2="521.693" y2="301.8" gradientUnits="userSpaceOnUse">
<stop stop-color="#FF78E1"/>
<stop offset="1" stop-color="#D54570"/>
</linearGradient>
<linearGradient id="paint1_linear_14_631" x1="257.804" y1="239.495" x2="257.099" y2="324.356" gradientUnits="userSpaceOnUse">
<stop stop-color="#FFE792"/>
<stop offset="1" stop-color="#D54570"/>
</linearGradient>
<linearGradient id="paint2_linear_14_631" x1="101.219" y1="314.922" x2="79.0825" y2="317.346" gradientUnits="userSpaceOnUse">
<stop stop-color="#FF78E1"/>
<stop offset="1" stop-color="#D54570"/>
</linearGradient>
<linearGradient id="paint3_linear_14_631" x1="367.173" y1="318.586" x2="389.309" y2="321.01" gradientUnits="userSpaceOnUse">
<stop stop-color="#FF78E1"/>
<stop offset="1" stop-color="#D54570"/>
</linearGradient>
<linearGradient id="paint4_linear_14_631" x1="354.675" y1="210.479" x2="358.287" y2="211.737" gradientUnits="userSpaceOnUse">
<stop stop-color="#FFEEB3"/>
<stop offset="0.450942" stop-color="#FFD39A"/>
<stop offset="1" stop-color="#F99048"/>
</linearGradient>
<linearGradient id="paint5_linear_14_631" x1="409.937" y1="305.975" x2="413.549" y2="307.232" gradientUnits="userSpaceOnUse">
<stop stop-color="#FFEEB3"/>
<stop offset="0.450942" stop-color="#FFD39A"/>
<stop offset="1" stop-color="#F99048"/>
</linearGradient>
<linearGradient id="paint6_linear_14_631" x1="55.8099" y1="258.327" x2="59.085" y2="260.098" gradientUnits="userSpaceOnUse">
<stop stop-color="#FFEEB3"/>
<stop offset="0.450942" stop-color="#FFD39A"/>
<stop offset="1" stop-color="#F99048"/>
</linearGradient>
<linearGradient id="paint7_linear_14_631" x1="79.2536" y1="204.06" x2="82.5287" y2="205.83" gradientUnits="userSpaceOnUse">
<stop stop-color="#FFEEB3"/>
<stop offset="0.450942" stop-color="#FFD39A"/>
<stop offset="1" stop-color="#F99048"/>
</linearGradient>
<linearGradient id="paint8_linear_14_631" x1="554.437" y1="298.885" x2="601.95" y2="376.675" gradientUnits="userSpaceOnUse">
<stop stop-color="#FFEEB3"/>
<stop offset="0.450942" stop-color="#FFD39A"/>
<stop offset="1" stop-color="#F99048"/>
</linearGradient>
<linearGradient id="paint9_linear_14_631" x1="554.437" y1="298.885" x2="601.95" y2="376.675" gradientUnits="userSpaceOnUse">
<stop stop-color="#FFEEB3"/>
<stop offset="0.450942" stop-color="#FFD39A"/>
<stop offset="1" stop-color="#F99048"/>
</linearGradient>
<linearGradient id="paint10_linear_14_631" x1="554.437" y1="298.885" x2="601.95" y2="376.675" gradientUnits="userSpaceOnUse">
<stop stop-color="#FFEEB3"/>
<stop offset="0.450942" stop-color="#FFD39A"/>
<stop offset="1" stop-color="#F99048"/>
</linearGradient>
<linearGradient id="paint11_linear_14_631" x1="554.437" y1="298.885" x2="601.95" y2="376.675" gradientUnits="userSpaceOnUse">
<stop stop-color="#FFEEB3"/>
<stop offset="0.450942" stop-color="#FFD39A"/>
<stop offset="1" stop-color="#F99048"/>
</linearGradient>
<linearGradient id="paint12_linear_14_631" x1="554.437" y1="298.885" x2="601.95" y2="376.675" gradientUnits="userSpaceOnUse">
<stop stop-color="#FFEEB3"/>
<stop offset="0.450942" stop-color="#FFD39A"/>
<stop offset="1" stop-color="#F99048"/>
</linearGradient>
<linearGradient id="paint13_linear_14_631" x1="554.437" y1="298.885" x2="601.95" y2="376.675" gradientUnits="userSpaceOnUse">
<stop stop-color="#FFEEB3"/>
<stop offset="0.450942" stop-color="#FFD39A"/>
<stop offset="1" stop-color="#F99048"/>
</linearGradient>
<linearGradient id="paint14_linear_14_631" x1="554.437" y1="298.885" x2="601.95" y2="376.675" gradientUnits="userSpaceOnUse">
<stop stop-color="#FFEEB3"/>
<stop offset="0.450942" stop-color="#FFD39A"/>
<stop offset="1" stop-color="#F99048"/>
</linearGradient>
<linearGradient id="paint15_linear_14_631" x1="492.599" y1="211.076" x2="529.306" y2="230.96" gradientUnits="userSpaceOnUse">
<stop stop-color="#FFEEB3"/>
<stop offset="0.450942" stop-color="#FFD39A"/>
<stop offset="1" stop-color="#F99048"/>
</linearGradient>
</defs>
</svg>
