<svg width="1080" height="1089" viewBox="0 0 1080 1089" fill="none" xmlns="http://www.w3.org/2000/svg">
<path d="M1057.25 539.737C1057.25 825.554 825.554 1057.25 539.737 1057.25C253.92 1057.25 22.2197 825.554 22.2197 539.737C22.2197 253.92 253.92 22.2198 539.737 22.2198C825.554 22.2198 1057.25 253.92 1057.25 539.737Z" fill="#01011E"/>
<path fill-rule="evenodd" clip-rule="evenodd" d="M539.737 43.4398C265.64 43.4398 43.4398 265.64 43.4398 539.737C43.4398 813.834 265.64 1036.03 539.737 1036.03C813.834 1036.03 1036.03 813.834 1036.03 539.737C1036.03 265.64 813.834 43.4398 539.737 43.4398ZM1 539.737C1 242.201 242.201 1 539.737 1C837.273 1 1078.47 242.201 1078.47 539.737C1078.47 837.273 837.273 1078.47 539.737 1078.47C242.201 1078.47 1 837.273 1 539.737Z" fill="#21214C"/>
<path d="M142.17 595.228C146.897 594.148 150.189 592.383 152.047 589.936C153.922 587.586 154.553 584.766 153.941 581.479C153.454 578.868 152.004 573.785 149.591 566.23C149.35 565.475 148.589 563.015 147.311 558.851C146.05 554.783 145.104 551.058 144.474 547.673C142.924 539.357 144.253 532.456 148.461 526.969C152.651 521.386 158.975 517.806 167.432 516.23L177.931 514.274L181.714 534.581L176.028 535.64C172.917 536.22 170.816 537.362 169.726 539.066C168.617 540.673 168.324 542.879 168.846 545.683C169.261 547.907 170.541 552.621 172.688 559.826C175.311 569.042 176.893 575.101 177.433 578.002C178.442 583.417 177.998 588.052 176.101 591.908C174.125 595.878 170.612 598.884 165.561 600.926L165.615 601.216C171.044 601.205 175.395 602.695 178.669 605.687C181.845 608.697 183.928 612.862 184.919 618.18C185.46 621.081 186.166 627.303 187.039 636.846C187.667 644.533 188.179 649.44 188.575 651.568C189.098 654.372 190.166 656.324 191.779 657.424C193.392 658.525 195.754 658.785 198.865 658.205L204.551 657.146L208.335 677.452L197.836 679.409C189.379 680.984 182.191 679.922 176.271 676.223C170.37 672.62 166.653 666.709 165.121 658.489C164.491 655.105 164.022 651.24 163.716 646.895C163.427 642.646 163.259 640.126 163.212 639.334C162.743 631.417 162.265 626.153 161.778 623.542C161.13 620.061 159.507 617.562 156.911 616.045C154.333 614.624 150.644 614.261 145.845 614.955L142.17 595.228Z" fill="url(#paint0_linear_39_5296)"/>
<g filter="url(#filter0_d_39_5296)">
<path d="M983.83 706.204C984.776 705.895 985.603 705.28 986.192 704.449C986.78 703.618 987.099 702.613 987.103 701.581C987.099 700.548 986.78 699.544 986.192 698.713C985.603 697.882 984.776 697.267 983.83 696.957C974.587 694.102 966.175 688.89 959.358 681.793C952.54 674.696 947.533 665.94 944.79 656.318C944.492 655.333 943.902 654.472 943.103 653.86C942.305 653.247 941.34 652.915 940.348 652.911C939.356 652.915 938.392 653.247 937.593 653.86C936.795 654.472 936.204 655.333 935.906 656.318C933.164 665.94 928.156 674.696 921.339 681.793C914.521 688.89 906.109 694.102 896.866 696.957C895.931 697.277 895.116 697.897 894.539 698.727C893.961 699.557 893.651 700.556 893.651 701.581C893.651 702.606 893.961 703.605 894.539 704.435C895.116 705.265 895.931 705.884 896.866 706.204C906.109 709.06 914.521 714.272 921.339 721.369C928.156 728.466 933.164 737.222 935.906 746.844C936.204 747.829 936.795 748.689 937.593 749.302C938.392 749.914 939.356 750.246 940.348 750.251C941.34 750.246 942.305 749.914 943.103 749.302C943.902 748.689 944.492 747.829 944.79 746.844C947.496 737.202 952.491 728.426 959.314 721.323C966.137 714.221 974.568 709.021 983.83 706.204Z" fill="#4BD6B5"/>
<path d="M990.711 619.565C995.875 619.565 1000.06 615.207 1000.06 609.831C1000.06 604.455 995.875 600.097 990.711 600.097C985.546 600.097 981.36 604.455 981.36 609.831C981.36 615.207 985.546 619.565 990.711 619.565Z" fill="url(#paint1_linear_39_5296)"/>
<path d="M869.993 778.007C875.157 778.007 879.344 773.649 879.344 768.273C879.344 762.897 875.157 758.539 869.993 758.539C864.828 758.539 860.642 762.897 860.642 768.273C860.642 773.649 864.828 778.007 869.993 778.007Z" fill="url(#paint2_linear_39_5296)"/>
<path d="M880.338 438.026C889.132 438.026 896.262 430.605 896.262 421.45C896.262 412.295 889.132 404.874 880.338 404.874C871.544 404.874 864.414 412.295 864.414 421.45C864.414 430.605 871.544 438.026 880.338 438.026Z" fill="url(#paint3_linear_39_5296)"/>
<path d="M877.925 308.356H867.238V297.232C867.238 295.265 866.488 293.378 865.152 291.987C863.816 290.597 862.003 289.815 860.114 289.815C858.224 289.815 856.412 290.597 855.076 291.987C853.74 293.378 852.989 295.265 852.989 297.232V308.356H842.302C840.413 308.356 838.601 309.137 837.265 310.528C835.929 311.919 835.178 313.805 835.178 315.772C835.178 317.739 835.929 319.626 837.265 321.017C838.601 322.407 840.413 323.189 842.302 323.189H852.989V334.313C852.989 336.28 853.74 338.167 855.076 339.557C856.412 340.948 858.224 341.73 860.114 341.73C862.003 341.73 863.816 340.948 865.152 339.557C866.488 338.167 867.238 336.28 867.238 334.313V323.189H877.925C879.815 323.189 881.627 322.407 882.963 321.017C884.299 319.626 885.05 317.739 885.05 315.772C885.05 313.805 884.299 311.919 882.963 310.528C881.627 309.137 879.815 308.356 877.925 308.356Z" fill="#F99048"/>
</g>
<path d="M217.814 351.935C218.797 351.596 219.657 350.923 220.269 350.013C220.88 349.103 221.212 348.003 221.216 346.873C221.212 345.743 220.88 344.643 220.269 343.733C219.657 342.823 218.797 342.15 217.814 341.811C208.206 338.685 199.462 332.978 192.376 325.209C185.289 317.439 180.084 307.852 177.233 297.318C176.924 296.239 176.31 295.297 175.48 294.626C174.65 293.956 173.647 293.592 172.616 293.588C171.585 293.592 170.582 293.956 169.753 294.626C168.923 295.297 168.309 296.239 167.999 297.318C165.148 307.852 159.943 317.439 152.857 325.209C145.77 332.978 137.026 338.685 127.419 341.811C126.446 342.161 125.6 342.839 124.999 343.748C124.399 344.657 124.076 345.751 124.076 346.873C124.076 347.995 124.399 349.089 124.999 349.998C125.6 350.907 126.446 351.585 127.419 351.935C137.026 355.061 145.77 360.768 152.857 368.538C159.943 376.308 165.148 385.894 167.999 396.429C168.309 397.507 168.923 398.449 169.753 399.12C170.582 399.79 171.585 400.154 172.616 400.159C173.647 400.154 174.65 399.79 175.48 399.12C176.31 398.449 176.924 397.507 177.233 396.429C180.046 385.873 185.238 376.264 192.33 368.488C199.423 360.712 208.187 355.019 217.814 351.935Z" fill="#4BD6B5"/>
<path d="M136.008 724.677C141.036 724.677 145.111 720.434 145.111 715.201C145.111 709.967 141.036 705.725 136.008 705.725C130.981 705.725 126.905 709.967 126.905 715.201C126.905 720.434 130.981 724.677 136.008 724.677Z" fill="url(#paint4_linear_39_5296)"/>
<path d="M113.374 460.607C118.401 460.607 122.477 456.365 122.477 451.131C122.477 445.898 118.401 441.655 113.374 441.655C108.346 441.655 104.271 445.898 104.271 451.131C104.271 456.365 108.346 460.607 113.374 460.607Z" fill="url(#paint5_linear_39_5296)"/>
<path d="M241.636 271.986C246.664 271.986 250.739 267.743 250.739 262.51C250.739 257.277 246.664 253.034 241.636 253.034C236.609 253.034 232.533 257.277 232.533 262.51C232.533 267.743 236.609 271.986 241.636 271.986Z" fill="url(#paint6_linear_39_5296)"/>
<path d="M210.903 473.508C221.355 473.508 229.827 464.689 229.827 453.809C229.827 442.93 221.355 434.11 210.903 434.11C200.452 434.11 191.979 442.93 191.979 453.809C191.979 464.689 200.452 473.508 210.903 473.508Z" fill="url(#paint7_linear_39_5296)"/>
<path d="M110.99 551.186H100.587V540.356C100.587 538.441 99.8558 536.605 98.5551 535.251C97.2544 533.897 95.4903 533.136 93.6509 533.136C91.8114 533.136 90.0473 533.897 88.7466 535.251C87.4459 536.605 86.7152 538.441 86.7152 540.356V551.186H76.3117C74.4722 551.186 72.7081 551.946 71.4074 553.3C70.1067 554.654 69.376 556.491 69.376 558.406C69.376 560.32 70.1067 562.157 71.4074 563.511C72.7081 564.865 74.4722 565.625 76.3117 565.625H86.7152V576.455C86.7152 578.37 87.4459 580.206 88.7466 581.56C90.0473 582.914 91.8114 583.675 93.6509 583.675C95.4903 583.675 97.2544 582.914 98.5551 581.56C99.8558 580.206 100.587 578.37 100.587 576.455V565.625H110.99C112.83 565.625 114.594 564.865 115.894 563.511C117.195 562.157 117.926 560.32 117.926 558.406C117.926 556.491 117.195 554.654 115.894 553.3C114.594 551.946 112.83 551.186 110.99 551.186Z" fill="#F99048"/>
<path d="M976.249 526.367C971.626 525.731 968.059 526.214 965.548 527.813C963.054 529.318 961.518 531.679 960.94 534.896C960.481 537.451 960.04 542.597 959.616 550.334C959.574 551.107 959.412 553.618 959.133 557.865C958.87 562.017 958.441 565.749 957.846 569.061C956.384 577.197 952.818 583.051 947.149 586.623C941.463 590.289 934.547 591.39 926.399 589.926L916.285 588.109L919.855 568.24L925.334 569.225C928.331 569.763 930.612 569.441 932.178 568.257C933.727 567.168 934.748 565.252 935.241 562.508C935.633 560.332 936.099 555.581 936.642 548.256C937.449 538.928 938.107 532.844 938.617 530.006C939.569 524.707 941.56 520.621 944.59 517.748C947.731 514.796 951.923 513.254 957.167 513.122L957.218 512.838C952.331 510.983 948.929 508.126 947.013 504.265C945.19 500.422 944.746 495.898 945.681 490.695C946.191 487.856 947.692 481.924 950.184 472.898C952.26 465.653 953.485 460.99 953.859 458.909C954.352 456.165 954.062 454.013 952.989 452.453C951.915 450.893 949.881 449.843 946.884 449.305L941.405 448.32L944.976 428.452L955.09 430.269C963.237 431.733 969.338 435.174 973.392 440.59C977.462 445.912 978.775 452.594 977.33 460.636C976.735 463.947 975.829 467.642 974.613 471.721C973.414 475.705 972.699 478.067 972.469 478.808C970.173 486.208 968.795 491.186 968.336 493.74C967.724 497.146 968.325 499.989 970.139 502.268C971.97 504.453 975.162 506.052 979.717 507.066L976.249 526.367Z" fill="url(#paint8_linear_39_5296)"/>
<mask id="mask0_39_5296" style="mask-type:alpha" maskUnits="userSpaceOnUse" x="22" y="22" width="1036" height="1036">
<circle cx="539.737" cy="539.737" r="517.517" fill="url(#paint9_linear_39_5296)"/>
</mask>
<g mask="url(#mask0_39_5296)">
<path d="M718.233 889.63L687.497 506.825H538.484C538.484 694.691 538.484 814.876 538.484 867.38L540.631 869.417C598.604 829.576 660.219 933.718 718.233 889.63Z" fill="#3B3B63"/>
<path d="M366.745 745.391L540.631 869.417L540.718 499.617H390.124L366.745 745.391Z" fill="#53537A"/>
<path d="M615.038 675.329C615.038 715.994 576.629 736.154 541.392 736.154C506.156 736.154 466.969 715.994 466.969 675.329" fill="#BC9375"/>
<path d="M540.999 696.36C512.711 696.36 498.955 675.836 498.955 633.645H512.443C512.443 683.04 531.725 683.04 540.999 683.04C550.269 683.04 569.555 683.04 569.555 633.645H583.039C583.039 675.836 569.283 696.36 540.999 696.36Z" fill="white"/>
<path d="M540.629 643.945C549.333 666.573 566.156 677.888 591.098 677.888C615.519 677.888 641.003 665.179 652.608 633.772C668.817 589.838 668.655 528.688 668.655 528.688C668.655 528.688 740.687 439.545 740.687 409.402C740.687 409.402 674.001 409.402 540.629 409.402V643.945Z" fill="#C49A7E"/>
<path d="M337.671 409.402C337.671 444.309 409.079 528.688 409.079 528.688C409.079 528.688 408.904 589.821 425.13 633.772C436.709 665.157 462.219 677.888 486.645 677.888C511.587 677.888 529.582 666.573 540.63 643.945V409.402H337.671Z" fill="#D8B7A0"/>
<path d="M732.086 208.681C676.558 152.399 662.671 35.036 662.671 35.036C652.303 72.0173 629.769 181.054 629.769 181.054C629.769 181.054 586.002 167.061 538.857 166.987C537.309 166.987 537.309 313.897 538.857 607.716L583.74 575.646L592.084 420.014L639.873 473.917L701.436 491.701C701.436 491.701 724.471 475.465 724.471 475.525C734.25 461.985 737.493 450.451 739.859 444.465C748.409 422.689 729.211 256.156 729.211 256.156C722.395 242.052 732.086 208.681 732.086 208.681Z" fill="#3B3B63"/>
<path d="M452.655 181.046C452.655 181.046 430.112 72.0143 419.753 35.0287C419.753 35.0287 405.875 152.392 350.338 208.674C350.338 208.674 360.03 242.049 353.213 256.149C353.213 256.149 334.015 422.69 342.565 444.432C344.926 450.422 348.196 461.951 357.962 475.492C357.962 475.431 381.01 491.672 381.01 491.672L442.56 473.884L490.341 419.99L498.706 575.621L540.67 606.842V166.163C493.351 166.241 452.655 181.046 452.655 181.046Z" fill="#53537A"/>
<path d="M693.232 -73.7265C702.445 -56.7529 781.645 100.164 781.645 154.505L746.517 249.088C752.46 302.457 764.28 418.42 755.357 441.076C749.848 455.09 728.851 483.918 710.89 507.263L755.357 878.313L710.078 848.134L683.795 590.562C681.258 606.989 677.444 624.531 671.629 640.282C663.939 661.13 650.35 676.929 632.969 686.287C631.95 736.268 585.324 763.232 541.392 763.232C497.096 763.232 450.079 736.289 449.044 686.326C431.627 676.951 418.021 661.152 410.322 640.282C404.739 625.138 400.977 608.372 398.427 592.495L380.772 755.419L334.823 763.232L371.5 507.939C353.398 484.49 331.997 455.233 326.436 441.063C317.512 418.403 328.872 302.457 334.823 249.079L297.607 151.182V147.992C297.607 93.6513 378.882 -56.7529 388.108 -73.7265L414.43 -121.379C430.457 -10.9728 438.464 44.2794 438.452 44.3777L451.414 133.844L468.466 161.554C484.851 156.089 512.665 148.499 540.83 148.499C569.027 148.499 597.03 156.115 613.485 161.572L630.528 133.849L667.454 -121.379L693.232 -73.7265ZM541.392 727.707C560.836 727.707 588.528 719.017 595.441 695.979C594.699 696.001 593.984 696.061 593.242 696.061C589.458 696.061 585.921 695.71 582.488 695.247C572.459 709.034 556.833 713.217 541.006 713.217C525.205 713.217 509.61 708.995 499.598 695.229C496.144 695.715 492.567 696.061 488.753 696.061C488.024 696.061 487.322 696.001 486.606 695.979C493.589 719.017 521.654 727.707 541.392 727.707ZM518.621 689.842C524.652 694.306 532.105 696.79 541.019 696.79C549.885 696.79 557.303 694.289 563.325 689.842C558.523 687.731 554.178 685.217 550.346 682.473C546.879 683.487 543.561 683.466 541.002 683.466C538.43 683.466 535.076 683.466 531.582 682.451C527.759 685.217 523.423 687.731 518.621 689.842ZM656.784 517.969C680.675 488.651 716.64 441.432 721.85 428.216C725.778 414.61 719.076 324.411 710.548 248.81L710.078 244.619L717.127 225.838C693.886 201.357 677.672 167.809 666.594 136.129L665.154 146.08L628.461 205.67L614.13 199.637C613.779 199.485 576.365 184.007 540.852 184.007C505.111 184.007 468.303 199.472 467.943 199.623L453.591 205.709L416.853 146.093L415.765 138.456C404.568 169.829 388.337 202.788 365.205 226.735L371.938 244.632L371.469 248.828C362.936 324.411 356.234 414.611 360.294 428.559C365.372 441.454 401.342 488.673 425.219 517.969L429.204 522.863L429.182 529.134C429.182 529.724 429.253 587.723 444.15 628.085C454.965 657.359 478.956 660.489 488.783 660.489C513.486 660.489 523.936 638.093 524.367 637.139C530.155 625.886 533.05 607.398 533.05 581.675H547.985C547.985 602.341 551.098 620.87 557.325 637.261C557.703 638.071 568.417 660.545 593.242 660.545C603.047 660.545 627.047 657.381 637.854 628.106C652.799 587.601 652.816 529.724 652.816 529.156L652.799 522.884L656.784 517.969Z" fill="#333152"/>
<path d="M652.709 360.327H598.766H580.788V361.076C580.788 385.887 602.506 405.985 627.981 405.985C653.464 405.985 675.182 385.882 675.182 361.076V360.327H652.709Z" fill="#333152"/>
<path d="M598.77 360.327V361.076C598.77 375.835 610.796 387.794 625.746 387.794C640.695 387.794 652.717 375.835 652.717 361.076V360.327H598.77Z" fill="white"/>
<path d="M621.424 360.327C621.301 360.327 621.196 360.387 621.086 360.409C622.653 360.734 623.522 364.245 623.184 366.581C622.679 370.153 619.598 372.632 616.069 372.693C617.096 377.361 620.95 381.114 626.068 381.825C632.608 382.74 638.652 378.31 639.578 371.856C640.245 367.106 637.932 360.327 634.065 360.327H621.424Z" fill="#333152"/>
<path d="M479.094 360.327H425.159H407.177V361.076C407.177 385.887 428.899 405.985 454.369 405.985C479.853 405.985 501.575 385.882 501.575 361.076V360.327H479.094Z" fill="#333152"/>
<path d="M425.168 360.327V361.076C425.168 375.835 437.203 387.794 452.131 387.794C467.085 387.794 479.107 375.835 479.107 361.076V360.327H425.168Z" fill="white"/>
<path d="M460.46 360.327H447.806C447.696 360.327 447.578 360.387 447.477 360.409C449.039 360.734 449.904 364.245 449.575 366.581C449.066 370.153 446.002 372.632 442.451 372.693C443.491 377.361 447.345 381.114 452.454 381.825C458.99 382.74 465.047 378.31 465.96 371.856C466.636 367.106 464.327 360.327 460.46 360.327Z" fill="#333152"/>
<path d="M647.287 339.149C650.307 335.881 675.944 307.152 641.656 307.152C610.672 307.152 588.38 331.841 582.472 339.149H647.287Z" fill="#C49A7E"/>
<path d="M499.389 339.149C493.485 331.841 471.193 307.152 440.2 307.152C405.93 307.152 431.567 335.881 434.569 339.149H499.389Z" fill="#D8B7A0"/>
<path d="M334.558 145.101C336.594 116.915 366.287 49.3802 394.611 -7.53497L402.16 44.504C399.281 63.9612 386.122 140.269 350.824 188.368L334.558 145.101Z" fill="#D8B7A0"/>
<path d="M680.449 40.4493L687.406 -7.53265C715.725 49.3782 745.436 116.917 747.472 145.104L731.588 187.343C693.45 134.393 681.485 48.3163 680.449 40.4493Z" fill="#C49A7E"/>
<mask id="mask1_39_5296" style="mask-type:alpha" maskUnits="userSpaceOnUse" x="487" y="555" width="108" height="75">
<path d="M514.556 613.278C501.255 603.312 487.61 590.736 487.61 581.089C487.61 574.752 498.956 555.222 498.956 555.222H583.326C583.326 555.222 594.391 572.538 594.391 581.089C594.391 590.072 580.618 602.302 566.876 612.268C562.198 604.314 556.247 602.932 553.497 609.202C552.077 612.451 551.798 617.128 552.491 622.023C545.007 626.797 539.539 629.873 539.539 629.873C539.539 629.873 535.315 627.436 529.277 623.515C530.251 618.09 530.064 612.779 528.496 609.202C525.722 602.848 519.651 604.352 514.937 612.592C514.808 612.818 514.68 613.047 514.556 613.278Z" fill="white"/>
</mask>
<g mask="url(#mask1_39_5296)">
<path d="M514.558 613.278C501.257 603.312 487.612 590.736 487.612 581.089C487.612 574.752 498.958 555.222 498.958 555.222H583.328C583.328 555.222 594.393 572.538 594.393 581.089C594.393 590.072 580.621 602.302 566.878 612.268C562.2 604.314 556.249 602.932 553.499 609.202C552.079 612.451 551.8 617.128 552.493 622.023C545.009 626.797 539.541 629.873 539.541 629.873C539.541 629.873 535.317 627.436 529.279 623.515C530.253 618.09 530.066 612.779 528.498 609.202C525.724 602.848 519.653 604.352 514.939 612.592C514.81 612.818 514.683 613.047 514.558 613.278Z" fill="#333152"/>
</g>
<g filter="url(#filter1_d_39_5296)">
<path fill-rule="evenodd" clip-rule="evenodd" d="M724.498 629.781C725.988 630.155 727.31 631.059 728.196 632.355C742.784 655.655 767.056 671.183 794.328 674.662C821.596 678.143 848.987 669.211 868.961 650.317L861.991 648.528L818.702 605.239C816.797 603.357 816.338 600.447 817.58 598.072L845.819 542.716L845.816 542.719C847.034 540.391 849.624 539.134 852.207 539.612L888.392 546.088C878.658 525.182 861.391 508.717 840.048 499.98C818.706 491.245 794.854 490.886 773.257 498.966C751.657 507.05 733.904 522.983 723.537 543.582C722.55 545.679 720.418 547.001 718.097 546.947L687.379 546.368L686.221 543.767L247.948 541.298L248.433 627.314L724.594 629.996L724.498 629.781Z" fill="url(#paint10_linear_39_5296)"/>
</g>
</g>
<mask id="mask2_39_5296" style="mask-type:alpha" maskUnits="userSpaceOnUse" x="396" y="503" width="302" height="210">
<path d="M412.666 651.025C399.839 626.127 396.633 578.406 396.633 557.657V507.673C497.545 501.071 698.993 497.864 697.484 537.852C695.975 577.84 671.077 638.764 658.816 664.228C648.756 662.971 626.751 668.189 619.206 699.123C609.775 737.791 428.698 682.147 412.666 651.025Z" fill="#C4C4C4"/>
</mask>
<g mask="url(#mask2_39_5296)">
<path d="M714.61 743.523L687.497 506.825H538.484C538.484 694.691 538.484 814.876 538.484 867.38L540.631 869.418C598.604 829.576 656.597 787.611 714.61 743.523Z" fill="#3B3B63"/>
<path d="M366.745 745.391L540.631 869.417L540.718 499.617H390.124L366.745 745.391Z" fill="#53537A"/>
<path d="M615.038 675.329C615.038 715.994 576.629 736.154 541.392 736.154C506.156 736.154 466.969 715.994 466.969 675.329" fill="#BC9375"/>
<path d="M540.999 696.36C512.711 696.36 498.955 675.836 498.955 633.645H512.443C512.443 683.04 531.725 683.04 540.999 683.04C550.269 683.04 569.555 683.04 569.555 633.645H583.039C583.039 675.836 569.283 696.36 540.999 696.36Z" fill="white"/>
<path d="M540.629 643.945C549.333 666.573 566.156 677.888 591.098 677.888C615.519 677.888 641.003 665.179 652.608 633.772C668.817 589.838 668.655 528.688 668.655 528.688C668.655 528.688 740.687 439.545 740.687 409.402C740.687 409.402 674.001 409.402 540.629 409.402V643.945Z" fill="#C49A7E"/>
<path d="M337.671 409.402C337.671 444.309 409.079 528.688 409.079 528.688C409.079 528.688 408.904 589.821 425.13 633.772C436.709 665.157 462.219 677.888 486.645 677.888C511.587 677.888 529.582 666.573 540.63 643.945V409.402H337.671Z" fill="#D8B7A0"/>
<path d="M732.086 208.681C676.558 152.399 662.671 35.0361 662.671 35.0361C652.303 72.0173 629.769 181.054 629.769 181.054C629.769 181.054 586.002 167.061 538.857 166.987C537.309 166.987 537.309 313.897 538.857 607.716L583.74 575.646L592.084 420.015L639.873 473.917L701.436 491.702C701.436 491.702 724.471 475.465 724.471 475.525C734.25 461.985 737.493 450.451 739.859 444.465C748.409 422.689 729.211 256.156 729.211 256.156C722.395 242.052 732.086 208.681 732.086 208.681Z" fill="#3B3B63"/>
<path d="M452.655 181.046C452.655 181.046 430.112 72.0143 419.754 35.0287C419.754 35.0287 405.875 152.392 350.338 208.674C350.338 208.674 360.03 242.049 353.213 256.149C353.213 256.149 334.015 422.69 342.565 444.432C344.926 450.422 348.196 461.951 357.962 475.492C357.962 475.431 381.01 491.672 381.01 491.672L442.56 473.884L490.341 419.99L498.706 575.621L540.671 606.842V166.163C493.351 166.241 452.655 181.046 452.655 181.046Z" fill="#53537A"/>
<path d="M693.232 -73.7267C702.445 -56.7531 781.645 100.164 781.645 154.505L746.517 249.088C752.46 302.457 764.28 418.42 755.357 441.076C749.848 455.089 728.851 483.918 710.89 507.263L735.445 728.814L702.251 752.443L683.795 590.562C681.258 606.989 677.444 624.53 671.629 640.282C663.939 661.13 650.35 676.929 632.969 686.287C631.95 736.267 585.324 763.232 541.392 763.232C497.097 763.232 450.079 736.289 449.044 686.326C431.627 676.951 418.021 661.152 410.322 640.282C404.739 625.137 400.977 608.372 398.427 592.495L380.772 755.419L347.398 731.406L371.5 507.939C353.399 484.49 331.997 455.232 326.436 441.063C317.512 418.403 328.872 302.457 334.823 249.079L297.607 151.182V147.992C297.607 93.6511 378.882 -56.7531 388.108 -73.7267L414.43 -121.379C430.457 -10.973 438.464 44.2792 438.452 44.3775L451.414 133.844L468.466 161.554C484.851 156.088 512.665 148.499 540.83 148.499C569.027 148.499 597.03 156.114 613.485 161.571L630.528 133.849L667.454 -121.379L693.232 -73.7267ZM541.392 727.707C560.836 727.707 588.528 719.016 595.441 695.979C594.699 696.001 593.984 696.061 593.242 696.061C589.458 696.061 585.921 695.71 582.488 695.246C572.459 709.034 556.834 713.217 541.006 713.217C525.205 713.217 509.61 708.995 499.598 695.229C496.144 695.715 492.567 696.061 488.753 696.061C488.024 696.061 487.322 696.001 486.606 695.979C493.59 719.016 521.654 727.707 541.392 727.707ZM518.621 689.841C524.652 694.306 532.105 696.789 541.019 696.789C549.885 696.789 557.303 694.289 563.325 689.841C558.523 687.731 554.178 685.217 550.346 682.473C546.879 683.487 543.561 683.465 541.002 683.465C538.43 683.465 535.076 683.465 531.582 682.451C527.759 685.217 523.423 687.731 518.621 689.841ZM656.784 517.969C680.675 488.651 716.64 441.432 721.85 428.216C725.778 414.61 719.076 324.411 710.548 248.81L710.078 244.619L717.127 225.838C693.886 201.357 677.673 167.809 666.594 136.128L665.155 146.08L628.461 205.67L614.13 199.636C613.779 199.485 576.365 184.006 540.852 184.006C505.111 184.006 468.303 199.472 467.943 199.623L453.591 205.709L416.853 146.093L415.765 138.456C404.568 169.828 388.337 202.787 365.205 226.735L371.939 244.632L371.469 248.828C362.936 324.411 356.234 414.61 360.294 428.559C365.372 441.453 401.342 488.673 425.219 517.969L429.204 522.862L429.182 529.134C429.182 529.724 429.253 587.723 444.15 628.085C454.965 657.359 478.956 660.489 488.783 660.489C513.486 660.489 523.936 638.093 524.367 637.139C530.155 625.886 533.05 607.398 533.05 581.675H547.985C547.985 602.341 551.098 620.87 557.325 637.261C557.703 638.071 568.417 660.545 593.242 660.545C603.047 660.545 627.047 657.381 637.854 628.106C652.799 587.601 652.817 529.724 652.817 529.156L652.799 522.884L656.784 517.969Z" fill="#333152"/>
<mask id="mask3_39_5296" style="mask-type:alpha" maskUnits="userSpaceOnUse" x="487" y="555" width="108" height="75">
<path d="M514.556 613.278C501.255 603.311 487.61 590.736 487.61 581.089C487.61 574.752 498.956 555.221 498.956 555.221H583.326C583.326 555.221 594.391 572.537 594.391 581.089C594.391 590.072 580.619 602.301 566.876 612.268C562.198 604.313 556.247 602.932 553.497 609.202C552.077 612.45 551.798 617.127 552.491 622.022C545.007 626.796 539.539 629.873 539.539 629.873C539.539 629.873 535.315 627.435 529.277 623.515C530.251 618.09 530.064 612.779 528.496 609.202C525.722 602.848 519.651 604.352 514.937 612.591C514.808 612.817 514.681 613.046 514.556 613.278Z" fill="white"/>
</mask>
<g mask="url(#mask3_39_5296)">
<path d="M514.558 613.278C501.257 603.311 487.612 590.736 487.612 581.089C487.612 574.752 498.958 555.221 498.958 555.221H583.328C583.328 555.221 594.393 572.537 594.393 581.089C594.393 590.072 580.621 602.301 566.878 612.268C562.2 604.313 556.249 602.932 553.499 609.202C552.079 612.45 551.8 617.127 552.493 622.022C545.009 626.796 539.541 629.873 539.541 629.873C539.541 629.873 535.317 627.435 529.279 623.515C530.253 618.09 530.066 612.779 528.498 609.202C525.724 602.848 519.653 604.352 514.939 612.591C514.81 612.817 514.683 613.046 514.558 613.278Z" fill="#333152"/>
</g>
</g>
<g filter="url(#filter2_d_39_5296)">
<path d="M457.652 761.794C184.92 677.877 139.464 791.515 92.2607 835.222L123.73 880.678L186.668 947.113L319.538 1022.29L457.652 1057.25H592.27L726.888 1022.29L880.737 913.895L966.403 815.181C829.163 835.286 697.045 835.454 457.652 761.794Z" fill="#030328"/>
</g>
<g filter="url(#filter3_d_39_5296)">
<path d="M341.7 930C345.767 930.867 349.033 932.9 351.5 936.1C353.967 939.233 355.2 942.833 355.2 946.9C355.2 952.767 353.133 957.433 349 960.9C344.933 964.3 339.233 966 331.9 966H299.2V895.8H330.8C337.933 895.8 343.5 897.433 347.5 900.7C351.567 903.967 353.6 908.4 353.6 914C353.6 918.133 352.5 921.567 350.3 924.3C348.167 927.033 345.3 928.933 341.7 930ZM316.3 924.2H327.5C330.3 924.2 332.433 923.6 333.9 922.4C335.433 921.133 336.2 919.3 336.2 916.9C336.2 914.5 335.433 912.667 333.9 911.4C332.433 910.133 330.3 909.5 327.5 909.5H316.3V924.2ZM328.9 952.2C331.767 952.2 333.967 951.567 335.5 950.3C337.1 948.967 337.9 947.067 337.9 944.6C337.9 942.133 337.067 940.2 335.4 938.8C333.8 937.4 331.567 936.7 328.7 936.7H316.3V952.2H328.9Z" fill="url(#paint11_linear_39_5296)"/>
<path d="M382.128 895.8V937.8C382.128 942 383.161 945.233 385.228 947.5C387.295 949.767 390.328 950.9 394.328 950.9C398.328 950.9 401.395 949.767 403.528 947.5C405.661 945.233 406.728 942 406.728 937.8V895.8H423.828V937.7C423.828 943.967 422.495 949.267 419.828 953.6C417.161 957.933 413.561 961.2 409.028 963.4C404.561 965.6 399.561 966.7 394.028 966.7C388.495 966.7 383.528 965.633 379.128 963.5C374.795 961.3 371.361 958.033 368.828 953.7C366.295 949.3 365.028 943.967 365.028 937.7V895.8H382.128Z" fill="url(#paint12_linear_39_5296)"/>
<path d="M482.646 918C481.379 915.667 479.546 913.9 477.146 912.7C474.812 911.433 472.046 910.8 468.846 910.8C463.312 910.8 458.879 912.633 455.546 916.3C452.212 919.9 450.546 924.733 450.546 930.8C450.546 937.267 452.279 942.333 455.746 946C459.279 949.6 464.112 951.4 470.246 951.4C474.446 951.4 477.979 950.333 480.846 948.2C483.779 946.067 485.912 943 487.246 939H465.546V926.4H502.746V942.3C501.479 946.567 499.312 950.533 496.246 954.2C493.246 957.867 489.412 960.833 484.746 963.1C480.079 965.367 474.812 966.5 468.946 966.5C462.012 966.5 455.812 965 450.346 962C444.946 958.933 440.712 954.7 437.646 949.3C434.646 943.9 433.146 937.733 433.146 930.8C433.146 923.867 434.646 917.7 437.646 912.3C440.712 906.833 444.946 902.6 450.346 899.6C455.746 896.533 461.912 895 468.846 895C477.246 895 484.312 897.033 490.046 901.1C495.846 905.167 499.679 910.8 501.546 918H482.646Z" fill="url(#paint13_linear_39_5296)"/>
<path d="M576.329 930C580.396 930.867 583.662 932.9 586.129 936.1C588.596 939.233 589.829 942.833 589.829 946.9C589.829 952.767 587.762 957.433 583.629 960.9C579.562 964.3 573.862 966 566.529 966H533.829V895.8H565.429C572.562 895.8 578.129 897.433 582.129 900.7C586.196 903.967 588.229 908.4 588.229 914C588.229 918.133 587.129 921.567 584.929 924.3C582.796 927.033 579.929 928.933 576.329 930ZM550.929 924.2H562.129C564.929 924.2 567.062 923.6 568.529 922.4C570.062 921.133 570.829 919.3 570.829 916.9C570.829 914.5 570.062 912.667 568.529 911.4C567.062 910.133 564.929 909.5 562.129 909.5H550.929V924.2ZM563.529 952.2C566.396 952.2 568.596 951.567 570.129 950.3C571.729 948.967 572.529 947.067 572.529 944.6C572.529 942.133 571.696 940.2 570.029 938.8C568.429 937.4 566.196 936.7 563.329 936.7H550.929V952.2H563.529Z" fill="url(#paint14_linear_39_5296)"/>
<path d="M643.657 953.6H617.457L613.257 966H595.357L620.757 895.8H640.557L665.957 966H647.857L643.657 953.6ZM639.257 940.4L630.557 914.7L621.957 940.4H639.257Z" fill="url(#paint15_linear_39_5296)"/>
<path d="M699.298 966.7C694.164 966.7 689.564 965.867 685.497 964.2C681.431 962.533 678.164 960.067 675.698 956.8C673.298 953.533 672.031 949.6 671.898 945H690.098C690.364 947.6 691.264 949.6 692.798 951C694.331 952.333 696.331 953 698.798 953C701.331 953 703.331 952.433 704.798 951.3C706.264 950.1 706.997 948.467 706.997 946.4C706.997 944.667 706.398 943.233 705.198 942.1C704.064 940.967 702.631 940.033 700.898 939.3C699.231 938.567 696.831 937.733 693.698 936.8C689.164 935.4 685.464 934 682.598 932.6C679.731 931.2 677.264 929.133 675.198 926.4C673.131 923.667 672.098 920.1 672.098 915.7C672.098 909.167 674.464 904.067 679.198 900.4C683.931 896.667 690.098 894.8 697.698 894.8C705.431 894.8 711.664 896.667 716.398 900.4C721.131 904.067 723.664 909.2 723.997 915.8H705.497C705.364 913.533 704.531 911.767 702.997 910.5C701.464 909.167 699.497 908.5 697.098 908.5C695.031 908.5 693.364 909.067 692.098 910.2C690.831 911.267 690.198 912.833 690.198 914.9C690.198 917.167 691.264 918.933 693.398 920.2C695.531 921.467 698.864 922.833 703.398 924.3C707.931 925.833 711.598 927.3 714.398 928.7C717.264 930.1 719.731 932.133 721.798 934.8C723.864 937.467 724.898 940.9 724.898 945.1C724.898 949.1 723.864 952.733 721.798 956C719.798 959.267 716.864 961.867 712.997 963.8C709.131 965.733 704.564 966.7 699.298 966.7Z" fill="url(#paint16_linear_39_5296)"/>
<path d="M796.431 895.8V966H779.331V937.1H752.731V966H735.631V895.8H752.731V923.3H779.331V895.8H796.431Z" fill="url(#paint17_linear_39_5296)"/>
</g>
<g filter="url(#filter4_d_39_5296)">
<rect x="298" y="821" width="135" height="59" rx="6" fill="url(#paint18_linear_39_5296)"/>
</g>
<path d="M325.65 861.4H336.85V868H317.1V832.9H325.65V861.4Z" fill="#030328"/>
<path d="M349.688 832.9V868H341.138V832.9H349.688Z" fill="#030328"/>
<path d="M389.044 832.9L376.594 868H365.894L353.444 832.9H362.544L371.244 859.4L379.994 832.9H389.044Z" fill="#030328"/>
<path d="M401.378 839.75V846.85H412.828V853.45H401.378V861.15H414.328V868H392.828V832.9H414.328V839.75H401.378Z" fill="#030328"/>
<path fill-rule="evenodd" clip-rule="evenodd" d="M539.737 43.4398C265.64 43.4398 43.4398 265.64 43.4398 539.737C43.4398 813.834 265.64 1036.03 539.737 1036.03C813.834 1036.03 1036.03 813.834 1036.03 539.737C1036.03 265.64 813.834 43.4398 539.737 43.4398ZM1 539.737C1 242.201 242.201 1 539.737 1C837.273 1 1078.47 242.201 1078.47 539.737C1078.47 837.273 837.273 1078.47 539.737 1078.47C242.201 1078.47 1 837.273 1 539.737Z" fill="#030328"/>
<path d="M605.58 75.5606H604.336V97.8797H588.901V42.3096L604.336 17.2576V69.1077C607.409 65.1981 617.76 50.3567 617.76 50.3567H636.816L618.747 70.2085L637.438 97.9176H617.943L605.58 75.5606ZM562.567 71.9166L568.894 50.5085H584.183L566.261 97.7278C560.921 111.924 553.276 121.527 541.865 121.527C537.475 121.527 533.781 120.351 531.843 119.212L537.987 109.343C538.902 109.457 539.853 109.495 540.804 109.495C546.071 109.495 550.021 104.181 552.581 97.8797L533.781 50.5085H551.082L557.848 71.6509C559.165 75.6744 560.116 83.3419 560.116 83.3419C560.116 83.3419 561.323 75.9401 562.567 71.9166ZM515.932 70.8158C515.932 64.6287 513.299 61.706 508.288 61.706C505.837 61.706 503.277 62.4272 501.521 63.528V97.8797H486.086V50.964L501.192 49.6734L500.826 57.3409H501.338C504.594 52.7859 510.117 49.3318 516.7 49.3318C524.601 49.3318 531.44 54.4181 531.44 66.4507V97.8797H515.932V70.8158ZM441.902 95.4504L443.292 84.5186C448.12 86.9858 453.57 88.1625 458.142 88.1625C461.47 88.1625 463.665 86.9858 463.665 84.8981C463.665 78.9008 442.853 80.3432 442.853 64.6667C442.853 54.6459 451.705 49.3698 462.787 49.3698C468.31 49.3698 474.016 50.926 477.71 52.2925L476.211 63.0345C472.334 61.4783 467.067 60.0359 462.678 60.0359C459.971 60.0359 457.776 61.0228 457.776 62.8447C457.776 68.7661 479.027 67.5894 479.027 82.8864C479.027 93.059 470.322 98.9045 458.398 98.9045C451.814 98.9045 446.474 97.7278 441.902 95.4504Z" fill="url(#paint19_linear_39_5296)"/>
<path fill-rule="evenodd" clip-rule="evenodd" d="M618.75 70.2057L618.747 70.2085L637.438 97.9176H617.943L605.58 75.5605H604.336V97.8796H588.901V42.3096L604.336 17.2575V69.1077C604.672 68.6809 605.094 68.1237 605.58 67.4699C606.376 66.3985 607.344 65.0675 608.382 63.6242C608.487 63.4782 608.592 63.331 608.699 63.1828C608.754 63.106 608.809 63.029 608.865 62.9517C611.693 59.0075 614.914 54.422 616.597 52.0198C617.321 50.986 617.76 50.3566 617.76 50.3566H636.816L618.75 70.2057ZM616.597 38.1514C616.981 38.1148 617.369 38.0962 617.76 38.0962H636.816C641.67 38.0962 646.067 40.9601 648.03 45.3999C649.992 49.8397 649.15 55.0193 645.883 58.6092L634.298 71.3377L647.602 91.0616C650.137 94.82 650.391 99.6706 648.263 103.673C646.135 107.676 641.971 110.178 637.438 110.178H617.943C615.466 110.178 613.098 109.431 611.112 108.099C609.171 109.389 606.842 110.14 604.336 110.14H588.901C583.775 110.14 579.384 106.994 577.553 102.528C571.968 117.14 561.552 133.788 541.865 133.788C535.576 133.788 529.684 132.163 525.633 129.783C522.782 128.109 520.728 125.353 519.938 122.143C519.147 118.932 519.687 115.538 521.435 112.732L523.049 110.14H515.932C513.239 110.14 510.749 109.272 508.727 107.8C506.704 109.272 504.214 110.14 501.521 110.14H486.086C482.703 110.14 479.641 108.77 477.422 106.555C471.675 109.818 464.976 111.165 458.398 111.165C450.306 111.165 443.023 109.706 436.436 106.425C431.768 104.1 429.082 99.0767 429.74 93.904L431.13 82.9722C431.41 80.7673 432.278 78.7154 433.602 77.0076C431.689 73.4708 430.593 69.3413 430.593 64.6667C430.593 55.5205 434.864 48.0538 441.535 43.2857C447.787 38.818 455.498 37.1093 462.787 37.1093C469.398 37.1093 475.784 38.6909 480.239 40.1856C481.684 39.4007 483.308 38.8962 485.043 38.7481L500.148 37.4575C502.439 37.2618 504.711 37.7151 506.721 38.7303C509.802 37.6711 513.149 37.0714 516.7 37.0714C520.537 37.0714 524.554 37.8068 528.317 39.533C529.99 38.6999 531.856 38.2481 533.781 38.2481H551.082C554.53 38.2481 557.723 39.6896 559.988 42.0819C562.251 39.6921 565.442 38.2481 568.894 38.2481H577.333C577.623 37.4237 578.001 36.629 578.463 35.8784L593.898 10.8263C596.775 6.15732 602.402 3.96652 607.679 5.46147C612.955 6.95642 616.597 11.7735 616.597 17.2575V38.1514ZM568.894 50.5084L562.567 71.9166C562.276 72.856 561.988 73.9796 561.716 75.1501C560.825 78.9929 560.116 83.3418 560.116 83.3418C560.116 83.3418 559.967 82.1436 559.706 80.446C559.307 77.8492 558.645 74.0838 557.848 71.6509L551.082 50.5084H533.781L552.581 97.8796C550.389 103.275 547.177 107.947 542.992 109.178C542.624 109.287 542.248 109.368 541.865 109.422C541.517 109.47 541.164 109.495 540.804 109.495C539.853 109.495 538.902 109.457 537.988 109.343L531.843 119.212C532.924 119.847 534.553 120.494 536.543 120.942C537.829 121.232 539.266 121.438 540.804 121.504C541.152 121.519 541.506 121.527 541.865 121.527C542.944 121.527 543.989 121.441 545.002 121.274C545.29 121.226 545.577 121.172 545.86 121.111C555.1 119.126 561.57 110.199 566.261 97.7278L571.045 85.1242L584.183 50.5084H568.894ZM531.44 66.4507C531.44 60.3336 529.673 56.0117 526.897 53.2407C525.37 51.7174 523.54 50.6628 521.53 50.0362C520.005 49.5607 518.376 49.3317 516.7 49.3317C515.585 49.3317 514.501 49.4308 513.452 49.6176C513.117 49.6773 512.785 49.746 512.457 49.8234C512.047 49.9201 511.644 50.0302 511.246 50.153C510.214 50.4721 509.226 50.877 508.288 51.3549C505.691 52.6778 503.48 54.5598 501.795 56.7285C501.638 56.9302 501.486 57.1344 501.338 57.3408H500.826L501.192 49.6734L486.086 50.9639V97.8796H501.521V63.5279C503.085 62.5474 505.287 61.8681 507.482 61.7313C507.751 61.7146 508.02 61.706 508.288 61.706C510.131 61.706 511.652 62.1013 512.839 62.9089C513.111 63.0936 513.365 63.2999 513.601 63.5279C513.662 63.5872 513.723 63.648 513.782 63.7103C515.203 65.208 515.932 67.5599 515.932 70.8158V97.8796H531.44V66.4507ZM503.621 70.005C503.622 70.0041 503.627 70.0261 503.634 70.074C503.623 70.0299 503.62 70.0059 503.621 70.005ZM476.666 75.2864C475.862 74.1959 474.894 73.2587 473.826 72.4389C473.476 72.17 473.114 71.9138 472.745 71.6689C471.212 70.6532 469.534 69.8332 467.872 69.1184C466.813 68.6624 465.76 68.2493 464.757 67.8554C464.033 67.5713 463.334 67.2972 462.678 67.0244C459.838 65.8449 457.776 64.6892 457.776 62.8447C457.776 62.6494 457.802 62.4637 457.85 62.2878C458.253 60.8225 460.261 60.0358 462.678 60.0358C462.714 60.0358 462.751 60.0359 462.787 60.0361C463.263 60.0387 463.749 60.058 464.242 60.0923C466.068 60.2195 467.991 60.5527 469.868 61.007C471.231 61.3369 472.568 61.7305 473.826 62.1553C473.896 62.179 473.966 62.2028 474.036 62.2267C474.796 62.4875 475.525 62.7592 476.211 63.0345L477.71 52.2924C476.582 51.8752 475.267 51.4402 473.826 51.0373C470.548 50.1206 466.624 49.3697 462.787 49.3697C462.751 49.3697 462.714 49.3698 462.678 49.3699C457.885 49.385 453.514 50.3892 450.104 52.3393C445.666 54.8776 442.853 59.0184 442.853 64.6667C442.853 67.9008 443.739 70.4063 445.145 72.3989C445.945 73.5322 446.913 74.4997 447.982 75.3408C449.726 76.7127 451.739 77.7486 453.729 78.6208C454.798 79.0893 455.86 79.5106 456.87 79.9113C457.305 80.0838 457.73 80.2524 458.142 80.4194C461.289 81.6945 463.665 82.8716 463.665 84.8981C463.665 85.3004 463.584 85.6689 463.428 86.0016C462.798 87.3509 460.953 88.1126 458.398 88.1601C458.314 88.1617 458.228 88.1625 458.142 88.1625C457.197 88.1625 456.214 88.1122 455.207 88.0106C454.078 87.8966 452.918 87.7181 451.746 87.4736C450.042 87.1182 448.314 86.6235 446.617 85.985C445.489 85.5602 444.375 85.0718 443.292 84.5185L441.902 95.4503C446.415 97.6982 451.676 98.8737 458.142 98.9039C458.227 98.9043 458.313 98.9045 458.398 98.9045C463.062 98.9045 467.233 98.0102 470.584 96.3125C471.773 95.7102 472.858 95.0067 473.826 94.2062C477.103 91.4943 479.027 87.6684 479.027 82.8863C479.027 79.715 478.114 77.2517 476.666 75.2864Z" fill="#030328"/>
<defs>
<filter id="filter0_d_39_5296" x="797.33" y="261.429" width="240.579" height="563.887" filterUnits="userSpaceOnUse" color-interpolation-filters="sRGB">
<feFlood flood-opacity="0" result="BackgroundImageFix"/>
<feColorMatrix in="SourceAlpha" type="matrix" values="0 0 0 0 0 0 0 0 0 0 0 0 0 0 0 0 0 0 127 0" result="hardAlpha"/>
<feOffset dy="9.46198"/>
<feGaussianBlur stdDeviation="18.924"/>
<feComposite in2="hardAlpha" operator="out"/>
<feColorMatrix type="matrix" values="0 0 0 0 0.129412 0 0 0 0 0.129412 0 0 0 0 0.298039 0 0 0 0.2 0"/>
<feBlend mode="normal" in2="BackgroundImageFix" result="effect1_dropShadow_39_5296"/>
<feBlend mode="normal" in="SourceGraphic" in2="effect1_dropShadow_39_5296" result="shape"/>
</filter>
<filter id="filter1_d_39_5296" x="217.006" y="484.316" width="702.329" height="244.13" filterUnits="userSpaceOnUse" color-interpolation-filters="sRGB">
<feFlood flood-opacity="0" result="BackgroundImageFix"/>
<feColorMatrix in="SourceAlpha" type="matrix" values="0 0 0 0 0 0 0 0 0 0 0 0 0 0 0 0 0 0 127 0" result="hardAlpha"/>
<feOffset dy="22.102"/>
<feGaussianBlur stdDeviation="15.4714"/>
<feComposite in2="hardAlpha" operator="out"/>
<feColorMatrix type="matrix" values="0 0 0 0 0.129412 0 0 0 0 0.129412 0 0 0 0 0.298039 0 0 0 0.3 0"/>
<feBlend mode="normal" in2="BackgroundImageFix" result="effect1_dropShadow_39_5296"/>
<feBlend mode="normal" in="SourceGraphic" in2="effect1_dropShadow_39_5296" result="shape"/>
</filter>
<filter id="filter2_d_39_5296" x="43.3088" y="665.264" width="972.046" height="423.46" filterUnits="userSpaceOnUse" color-interpolation-filters="sRGB">
<feFlood flood-opacity="0" result="BackgroundImageFix"/>
<feColorMatrix in="SourceAlpha" type="matrix" values="0 0 0 0 0 0 0 0 0 0 0 0 0 0 0 0 0 0 127 0" result="hardAlpha"/>
<feOffset dy="-17.4828"/>
<feGaussianBlur stdDeviation="24.476"/>
<feComposite in2="hardAlpha" operator="out"/>
<feColorMatrix type="matrix" values="0 0 0 0 0.129412 0 0 0 0 0.129412 0 0 0 0 0.298039 0 0 0 0.1 0"/>
<feBlend mode="normal" in2="BackgroundImageFix" result="effect1_dropShadow_39_5296"/>
<feBlend mode="normal" in="SourceGraphic" in2="effect1_dropShadow_39_5296" result="shape"/>
</filter>
<filter id="filter3_d_39_5296" x="292.695" y="892.198" width="510.24" height="84.9091" filterUnits="userSpaceOnUse" color-interpolation-filters="sRGB">
<feFlood flood-opacity="0" result="BackgroundImageFix"/>
<feColorMatrix in="SourceAlpha" type="matrix" values="0 0 0 0 0 0 0 0 0 0 0 0 0 0 0 0 0 0 127 0" result="hardAlpha"/>
<feOffset dy="3.90271"/>
<feGaussianBlur stdDeviation="3.25226"/>
<feComposite in2="hardAlpha" operator="out"/>
<feColorMatrix type="matrix" values="0 0 0 0 0 0 0 0 0 0 0 0 0 0 0 0 0 0 0.2 0"/>
<feBlend mode="normal" in2="BackgroundImageFix" result="effect1_dropShadow_39_5296"/>
<feBlend mode="normal" in="SourceGraphic" in2="effect1_dropShadow_39_5296" result="shape"/>
</filter>
<filter id="filter4_d_39_5296" x="291.495" y="818.398" width="148.009" height="72.009" filterUnits="userSpaceOnUse" color-interpolation-filters="sRGB">
<feFlood flood-opacity="0" result="BackgroundImageFix"/>
<feColorMatrix in="SourceAlpha" type="matrix" values="0 0 0 0 0 0 0 0 0 0 0 0 0 0 0 0 0 0 127 0" result="hardAlpha"/>
<feOffset dy="3.90271"/>
<feGaussianBlur stdDeviation="3.25226"/>
<feComposite in2="hardAlpha" operator="out"/>
<feColorMatrix type="matrix" values="0 0 0 0 0 0 0 0 0 0 0 0 0 0 0 0 0 0 0.2 0"/>
<feBlend mode="normal" in2="BackgroundImageFix" result="effect1_dropShadow_39_5296"/>
<feBlend mode="normal" in="SourceGraphic" in2="effect1_dropShadow_39_5296" result="shape"/>
</filter>
<linearGradient id="paint0_linear_39_5296" x1="208.335" y1="677.452" x2="146.401" y2="684.235" gradientUnits="userSpaceOnUse">
<stop stop-color="#FF78E1"/>
<stop offset="1" stop-color="#D54570"/>
</linearGradient>
<linearGradient id="paint1_linear_39_5296" x1="987.778" y1="604.751" x2="997.06" y2="610.076" gradientUnits="userSpaceOnUse">
<stop stop-color="#FFEEB3"/>
<stop offset="0.450942" stop-color="#FFD39A"/>
<stop offset="1" stop-color="#F99048"/>
</linearGradient>
<linearGradient id="paint2_linear_39_5296" x1="867.061" y1="763.193" x2="876.342" y2="768.518" gradientUnits="userSpaceOnUse">
<stop stop-color="#FFEEB3"/>
<stop offset="0.450942" stop-color="#FFD39A"/>
<stop offset="1" stop-color="#F99048"/>
</linearGradient>
<linearGradient id="paint3_linear_39_5296" x1="875.345" y1="412.8" x2="891.15" y2="421.868" gradientUnits="userSpaceOnUse">
<stop stop-color="#FFEEB3"/>
<stop offset="0.450942" stop-color="#FFD39A"/>
<stop offset="1" stop-color="#F99048"/>
</linearGradient>
<linearGradient id="paint4_linear_39_5296" x1="133.154" y1="710.256" x2="142.19" y2="715.44" gradientUnits="userSpaceOnUse">
<stop stop-color="#FFEEB3"/>
<stop offset="0.450942" stop-color="#FFD39A"/>
<stop offset="1" stop-color="#F99048"/>
</linearGradient>
<linearGradient id="paint5_linear_39_5296" x1="110.519" y1="446.186" x2="119.555" y2="451.37" gradientUnits="userSpaceOnUse">
<stop stop-color="#FFEEB3"/>
<stop offset="0.450942" stop-color="#FFD39A"/>
<stop offset="1" stop-color="#F99048"/>
</linearGradient>
<linearGradient id="paint6_linear_39_5296" x1="238.782" y1="257.565" x2="247.818" y2="262.749" gradientUnits="userSpaceOnUse">
<stop stop-color="#FFEEB3"/>
<stop offset="0.450942" stop-color="#FFD39A"/>
<stop offset="1" stop-color="#F99048"/>
</linearGradient>
<linearGradient id="paint7_linear_39_5296" x1="204.97" y1="443.529" x2="223.753" y2="454.306" gradientUnits="userSpaceOnUse">
<stop stop-color="#FFEEB3"/>
<stop offset="0.450942" stop-color="#FFD39A"/>
<stop offset="1" stop-color="#F99048"/>
</linearGradient>
<linearGradient id="paint8_linear_39_5296" x1="944.976" y1="428.452" x2="1003.04" y2="443.39" gradientUnits="userSpaceOnUse">
<stop stop-color="#FF78E1"/>
<stop offset="1" stop-color="#D54570"/>
</linearGradient>
<linearGradient id="paint9_linear_39_5296" x1="22.2197" y1="21.9722" x2="935.645" y2="282.158" gradientUnits="userSpaceOnUse">
<stop stop-color="#DA72FF"/>
<stop offset="1" stop-color="#7840EE"/>
</linearGradient>
<linearGradient id="paint10_linear_39_5296" x1="630.481" y1="446.895" x2="628.508" y2="684.326" gradientUnits="userSpaceOnUse">
<stop stop-color="#FFE792"/>
<stop offset="1" stop-color="#D54570"/>
</linearGradient>
<linearGradient id="paint11_linear_39_5296" x1="382.437" y1="972.886" x2="429.95" y2="1050.68" gradientUnits="userSpaceOnUse">
<stop stop-color="#FFEEB3"/>
<stop offset="0.450942" stop-color="#FFD39A"/>
<stop offset="1" stop-color="#F99048"/>
</linearGradient>
<linearGradient id="paint12_linear_39_5296" x1="382.437" y1="972.886" x2="429.95" y2="1050.68" gradientUnits="userSpaceOnUse">
<stop stop-color="#FFEEB3"/>
<stop offset="0.450942" stop-color="#FFD39A"/>
<stop offset="1" stop-color="#F99048"/>
</linearGradient>
<linearGradient id="paint13_linear_39_5296" x1="382.437" y1="972.886" x2="429.95" y2="1050.68" gradientUnits="userSpaceOnUse">
<stop stop-color="#FFEEB3"/>
<stop offset="0.450942" stop-color="#FFD39A"/>
<stop offset="1" stop-color="#F99048"/>
</linearGradient>
<linearGradient id="paint14_linear_39_5296" x1="382.437" y1="972.886" x2="429.95" y2="1050.68" gradientUnits="userSpaceOnUse">
<stop stop-color="#FFEEB3"/>
<stop offset="0.450942" stop-color="#FFD39A"/>
<stop offset="1" stop-color="#F99048"/>
</linearGradient>
<linearGradient id="paint15_linear_39_5296" x1="382.437" y1="972.886" x2="429.95" y2="1050.68" gradientUnits="userSpaceOnUse">
<stop stop-color="#FFEEB3"/>
<stop offset="0.450942" stop-color="#FFD39A"/>
<stop offset="1" stop-color="#F99048"/>
</linearGradient>
<linearGradient id="paint16_linear_39_5296" x1="382.437" y1="972.886" x2="429.95" y2="1050.68" gradientUnits="userSpaceOnUse">
<stop stop-color="#FFEEB3"/>
<stop offset="0.450942" stop-color="#FFD39A"/>
<stop offset="1" stop-color="#F99048"/>
</linearGradient>
<linearGradient id="paint17_linear_39_5296" x1="382.437" y1="972.886" x2="429.95" y2="1050.68" gradientUnits="userSpaceOnUse">
<stop stop-color="#FFEEB3"/>
<stop offset="0.450942" stop-color="#FFD39A"/>
<stop offset="1" stop-color="#F99048"/>
</linearGradient>
<linearGradient id="paint18_linear_39_5296" x1="320.599" y1="885.076" x2="357.306" y2="904.96" gradientUnits="userSpaceOnUse">
<stop stop-color="#FFEEB3"/>
<stop offset="0.450942" stop-color="#FFD39A"/>
<stop offset="1" stop-color="#F99048"/>
</linearGradient>
<linearGradient id="paint19_linear_39_5296" x1="441.902" y1="17.2576" x2="642.28" y2="111.199" gradientUnits="userSpaceOnUse">
<stop stop-color="#FFE792"/>
<stop offset="1" stop-color="#F99048"/>
</linearGradient>
</defs>
</svg>

