<svg width="416" height="377" viewBox="0 0 416 377" fill="none" xmlns="http://www.w3.org/2000/svg">
<mask id="mask0_14_633" style="mask-type:alpha" maskUnits="userSpaceOnUse" x="-84" y="23" width="597" height="318">
<path fill-rule="evenodd" clip-rule="evenodd" d="M-68.9068 23C-76.9854 23 -83.5343 29.5489 -83.5343 37.6274V339.699C-83.5343 340.029 -83.1233 340.193 -82.8844 339.965C-45.481 304.307 27.9959 237.833 171.256 295.755C319.618 355.739 430.047 329.711 506.704 310.294C509.7 309.535 512.535 307.205 512.535 304.115V37.6275C512.535 29.5489 505.986 23 497.907 23H-68.9068Z" fill="url(#paint0_linear_14_633)"/>
</mask>
<g mask="url(#mask0_14_633)">
<path d="M265.429 336.09L255.895 217.342H209.67C209.67 275.619 209.67 312.901 209.67 329.188L210.336 329.82C228.32 317.461 247.433 349.766 265.429 336.09Z" fill="#3B3B63"/>
<path d="M156.395 291.346L210.336 329.82L210.363 215.105H163.647L156.395 291.346Z" fill="#53537A"/>
<path d="M233.417 269.612C233.417 282.227 221.502 288.481 210.572 288.481C199.641 288.481 187.485 282.227 187.485 269.612" fill="#BC9375"/>
<path d="M210.45 276.136C201.674 276.136 197.407 269.77 197.407 256.682H201.591C201.591 272.004 207.573 272.004 210.45 272.004C213.325 272.004 219.308 272.004 219.308 256.682H223.491C223.491 269.77 219.224 276.136 210.45 276.136Z" fill="white"/>
<path d="M210.335 259.877C213.035 266.896 218.254 270.406 225.991 270.406C233.567 270.406 241.472 266.464 245.072 256.721C250.1 243.093 250.05 224.124 250.05 224.124C250.05 224.124 272.394 196.471 272.394 187.12C272.394 187.12 251.708 187.12 210.335 187.12V259.877Z" fill="#C49A7E"/>
<path d="M147.376 187.12C147.376 197.949 169.528 224.124 169.528 224.124C169.528 224.124 169.473 243.087 174.507 256.721C178.099 266.457 186.012 270.406 193.589 270.406C201.326 270.406 206.908 266.896 210.335 259.877V187.12H147.376Z" fill="#D8B7A0"/>
<path d="M269.726 124.855C252.501 107.396 248.193 70.9895 248.193 70.9895C244.977 82.4613 237.987 116.285 237.987 116.285C237.987 116.285 224.41 111.945 209.785 111.922C209.305 111.922 209.305 157.494 209.785 248.638L223.708 238.69L226.297 190.412L241.121 207.133L260.218 212.65C260.218 212.65 267.364 207.613 267.364 207.632C270.397 203.432 271.404 199.854 272.137 197.997C274.79 191.242 268.834 139.582 268.834 139.582C266.72 135.207 269.726 124.855 269.726 124.855Z" fill="#3B3B63"/>
<path d="M183.045 116.283C183.045 116.283 176.052 82.4605 172.839 70.9873C172.839 70.9873 168.534 107.394 151.306 124.853C151.306 124.853 154.312 135.206 152.198 139.58C152.198 139.58 146.242 191.242 148.895 197.987C149.627 199.845 150.641 203.421 153.671 207.622C153.671 207.603 160.82 212.641 160.82 212.641L179.913 207.123L194.735 190.405L197.331 238.683L210.348 248.367V111.666C195.669 111.69 183.045 116.283 183.045 116.283Z" fill="#53537A"/>
<path d="M257.674 37.2506C260.532 42.5159 285.1 91.1927 285.1 108.049L274.203 137.39C276.047 153.945 279.713 189.918 276.945 196.946C275.237 201.293 268.723 210.235 263.151 217.477L276.945 328.75L263.151 325.5L254.746 243.317C253.959 248.413 252.776 253.854 250.972 258.741C248.587 265.208 244.371 270.109 238.98 273.012C238.664 288.516 224.2 296.88 210.572 296.88C196.831 296.88 182.246 288.523 181.925 273.024C176.522 270.116 172.301 265.215 169.913 258.741C168.181 254.043 167.015 248.842 166.223 243.917L160.747 294.457L146.493 296.88L157.87 217.687C152.255 210.413 145.616 201.337 143.891 196.942C141.123 189.912 144.647 153.945 146.493 137.387L134.948 107.019V106.029C134.948 89.1723 160.16 42.5159 163.022 37.2506L171.188 22.4685C176.159 56.7172 178.643 73.8568 178.639 73.8873L182.66 101.64L187.95 110.236C193.033 108.541 201.661 106.186 210.398 106.186C219.144 106.186 227.831 108.549 232.936 110.242L238.223 101.642L249.677 22.4685L257.674 37.2506ZM210.572 285.86C216.604 285.86 225.194 283.165 227.338 276.018C227.108 276.025 226.886 276.044 226.656 276.044C225.483 276.044 224.385 275.935 223.32 275.791C220.209 280.068 215.362 281.365 210.452 281.365C205.551 281.365 200.713 280.056 197.607 275.786C196.536 275.936 195.426 276.044 194.243 276.044C194.017 276.044 193.799 276.025 193.577 276.018C195.743 283.165 204.449 285.86 210.572 285.86ZM203.508 274.114C205.379 275.499 207.691 276.27 210.456 276.27C213.207 276.27 215.508 275.494 217.376 274.114C215.886 273.459 214.538 272.68 213.35 271.829C212.274 272.143 211.245 272.136 210.451 272.136C209.653 272.136 208.613 272.136 207.529 271.822C206.343 272.68 204.998 273.459 203.508 274.114ZM246.367 220.798C253.778 211.704 264.935 197.056 266.551 192.956C267.77 188.736 265.691 160.755 263.045 137.304L262.899 136.003L265.086 130.177C257.877 122.583 252.847 112.176 249.41 102.349L248.964 105.436L237.581 123.921L233.136 122.05C233.027 122.003 221.421 117.201 210.405 117.201C199.317 117.201 187.899 121.998 187.788 122.046L183.336 123.933L171.939 105.44L171.602 103.071C168.128 112.803 163.093 123.027 155.918 130.456L158.006 136.007L157.861 137.309C155.214 160.755 153.135 188.736 154.394 193.063C155.97 197.063 167.128 211.71 174.534 220.798L175.771 222.316L175.764 224.262C175.764 224.445 175.786 242.436 180.407 254.957C183.762 264.038 191.204 265.009 194.252 265.009C201.915 265.009 205.157 258.062 205.291 257.766C207.086 254.275 207.984 248.54 207.984 240.56H212.617C212.617 246.971 213.583 252.719 215.515 257.803C215.632 258.055 218.955 265.026 226.656 265.026C229.698 265.026 237.143 264.045 240.495 254.964C245.131 242.399 245.137 224.445 245.137 224.269L245.131 222.323L246.367 220.798Z" fill="#333152"/>
<path d="M245.103 171.897H228.37H222.793V172.129C222.793 179.826 229.53 186.06 237.432 186.06C245.337 186.06 252.074 179.824 252.074 172.129V171.897H245.103Z" fill="#333152"/>
<path d="M228.371 171.897V172.129C228.371 176.708 232.102 180.417 236.739 180.417C241.377 180.417 245.106 176.708 245.106 172.129V171.897H228.371Z" fill="white"/>
<path d="M235.398 171.897C235.36 171.897 235.328 171.916 235.294 171.922C235.78 172.023 236.049 173.112 235.944 173.837C235.788 174.945 234.832 175.714 233.737 175.733C234.056 177.181 235.251 178.345 236.839 178.566C238.868 178.85 240.743 177.475 241.03 175.473C241.237 174 240.519 171.897 239.32 171.897H235.398Z" fill="#333152"/>
<path d="M191.247 171.897H174.516H168.937V172.129C168.937 179.826 175.676 186.06 183.577 186.06C191.482 186.06 198.22 179.824 198.22 172.129V171.897H191.247Z" fill="#333152"/>
<path d="M174.518 171.897V172.129C174.518 176.708 178.252 180.417 182.882 180.417C187.521 180.417 191.25 176.708 191.25 172.129V171.897H174.518Z" fill="white"/>
<path d="M185.466 171.897H181.541C181.507 171.897 181.47 171.916 181.439 171.922C181.924 172.023 182.192 173.112 182.09 173.837C181.932 174.945 180.981 175.714 179.88 175.733C180.203 177.181 181.398 178.345 182.983 178.566C185.01 178.85 186.889 177.475 187.172 175.473C187.382 174 186.666 171.897 185.466 171.897Z" fill="#333152"/>
<path d="M243.421 165.327C244.358 164.313 252.311 155.402 241.674 155.402C232.063 155.402 225.148 163.06 223.315 165.327H243.421Z" fill="#C49A7E"/>
<path d="M197.542 165.327C195.711 163.06 188.796 155.402 179.182 155.402C168.551 155.402 176.503 164.313 177.435 165.327H197.542Z" fill="#D8B7A0"/>
<path d="M146.41 105.133C147.042 96.3888 156.253 75.4392 165.039 57.7838L167.381 73.9266C166.488 79.9623 162.406 103.633 151.456 118.554L146.41 105.133Z" fill="#D8B7A0"/>
<path d="M253.708 72.6686L255.866 57.7843C264.651 75.4384 273.867 96.3894 274.499 105.133L269.572 118.236C257.741 101.811 254.03 75.109 253.708 72.6686Z" fill="#C49A7E"/>
<mask id="mask1_14_633" style="mask-type:alpha" maskUnits="userSpaceOnUse" x="193" y="232" width="35" height="24">
<path d="M202.247 250.364C198.121 247.272 193.889 243.371 193.889 240.379C193.889 238.413 197.408 232.354 197.408 232.354H223.58C223.58 232.354 227.013 237.726 227.013 240.379C227.013 243.165 222.74 246.959 218.477 250.051C217.026 247.583 215.18 247.155 214.327 249.1C213.887 250.107 213.8 251.558 214.015 253.077C211.694 254.558 209.997 255.512 209.997 255.512C209.997 255.512 208.687 254.756 206.814 253.54C207.116 251.857 207.058 250.209 206.572 249.1C205.711 247.128 203.828 247.595 202.366 250.151C202.326 250.221 202.286 250.292 202.247 250.364Z" fill="white"/>
</mask>
<g mask="url(#mask1_14_633)">
<path d="M202.248 250.364C198.122 247.272 193.889 243.371 193.889 240.379C193.889 238.413 197.409 232.354 197.409 232.354H223.58C223.58 232.354 227.013 237.726 227.013 240.379C227.013 243.165 222.741 246.959 218.478 250.051C217.027 247.583 215.181 247.154 214.327 249.099C213.887 250.107 213.8 251.558 214.015 253.076C211.694 254.557 209.998 255.512 209.998 255.512C209.998 255.512 208.687 254.756 206.814 253.539C207.116 251.857 207.058 250.209 206.572 249.099C205.711 247.128 203.828 247.595 202.366 250.151C202.326 250.221 202.286 250.292 202.248 250.364Z" fill="#333152"/>
</g>
<g filter="url(#filter0_d_14_633)">
<path fill-rule="evenodd" clip-rule="evenodd" d="M267.372 255.483C267.834 255.599 268.245 255.88 268.52 256.282C273.045 263.509 280.574 268.326 289.034 269.406C297.493 270.485 305.99 267.715 312.186 261.853L310.024 261.299L296.595 247.87C296.004 247.286 295.862 246.383 296.247 245.647L305.007 228.475L305.006 228.476C305.384 227.754 306.187 227.364 306.989 227.512L318.213 229.521C315.194 223.036 309.837 217.928 303.217 215.218C296.596 212.508 289.197 212.397 282.498 214.903C275.797 217.411 270.29 222.354 267.074 228.744C266.768 229.394 266.107 229.804 265.387 229.788L255.857 229.608L255.498 228.801L119.543 228.035L119.694 254.718L267.402 255.55L267.372 255.483Z" fill="url(#paint1_linear_14_633)"/>
</g>
<mask id="mask2_14_633" style="mask-type:alpha" maskUnits="userSpaceOnUse" x="165" y="216" width="94" height="66">
<path d="M170.64 262.073C166.661 254.35 165.667 239.546 165.667 233.11V217.604C196.97 215.556 259.461 214.562 258.992 226.966C258.524 239.371 250.801 258.27 246.998 266.169C243.877 265.779 237.051 267.398 234.71 276.993C231.785 288.988 175.614 271.727 170.64 262.073Z" fill="#C4C4C4"/>
</mask>
<g mask="url(#mask2_14_633)">
<path d="M264.306 290.767L255.895 217.342H209.67C209.67 275.619 209.67 312.901 209.67 329.188L210.336 329.82C228.32 317.461 246.309 304.443 264.306 290.767Z" fill="#3B3B63"/>
<path d="M156.396 291.346L210.336 329.82L210.363 215.105H163.648L156.396 291.346Z" fill="#53537A"/>
<path d="M233.418 269.612C233.418 282.227 221.503 288.481 210.572 288.481C199.641 288.481 187.485 282.227 187.485 269.612" fill="#BC9375"/>
<path d="M210.45 276.136C201.675 276.136 197.408 269.77 197.408 256.682H201.592C201.592 272.004 207.573 272.004 210.45 272.004C213.326 272.004 219.308 272.004 219.308 256.682H223.491C223.491 269.77 219.224 276.136 210.45 276.136Z" fill="white"/>
<path d="M210.335 259.877C213.035 266.896 218.254 270.406 225.991 270.406C233.567 270.406 241.472 266.464 245.072 256.721C250.1 243.093 250.05 224.124 250.05 224.124C250.05 224.124 272.394 196.471 272.394 187.12C272.394 187.12 251.708 187.12 210.335 187.12V259.877Z" fill="#C49A7E"/>
<path d="M147.377 187.12C147.377 197.949 169.528 224.124 169.528 224.124C169.528 224.124 169.473 243.087 174.507 256.721C178.099 266.457 186.012 270.406 193.589 270.406C201.327 270.406 206.909 266.896 210.336 259.877V187.12H147.377Z" fill="#D8B7A0"/>
<path d="M269.727 124.856C252.501 107.396 248.194 70.9896 248.194 70.9896C244.978 82.4614 237.987 116.285 237.987 116.285C237.987 116.285 224.41 111.945 209.786 111.922C209.306 111.922 209.306 157.494 209.786 248.638L223.709 238.69L226.297 190.412L241.122 207.133L260.219 212.65C260.219 212.65 267.364 207.613 267.364 207.632C270.398 203.432 271.404 199.854 272.138 197.997C274.79 191.242 268.835 139.583 268.835 139.583C266.72 135.207 269.727 124.856 269.727 124.856Z" fill="#3B3B63"/>
<path d="M183.045 116.283C183.045 116.283 176.052 82.4605 172.839 70.9873C172.839 70.9873 168.534 107.394 151.306 124.853C151.306 124.853 154.312 135.206 152.198 139.58C152.198 139.58 146.242 191.242 148.895 197.987C149.627 199.845 150.642 203.421 153.671 207.622C153.671 207.603 160.821 212.641 160.821 212.641L179.914 207.123L194.736 190.405L197.331 238.683L210.348 248.367V111.666C195.669 111.69 183.045 116.283 183.045 116.283Z" fill="#53537A"/>
<path d="M257.674 37.2506C260.532 42.5159 285.1 91.1927 285.1 108.049L274.203 137.39C276.047 153.945 279.714 189.918 276.946 196.946C275.237 201.293 268.723 210.235 263.152 217.477L270.769 286.204L260.472 293.534L254.747 243.317C253.96 248.413 252.777 253.854 250.973 258.741C248.587 265.208 244.372 270.109 238.98 273.012C238.664 288.516 224.2 296.88 210.572 296.88C196.832 296.88 182.247 288.523 181.925 273.024C176.523 270.116 172.302 265.215 169.914 258.741C168.182 254.043 167.015 248.842 166.224 243.917L160.747 294.457L150.394 287.008L157.871 217.687C152.256 210.413 145.617 201.337 143.892 196.942C141.124 189.912 144.647 153.945 146.493 137.387L134.949 107.019V106.029C134.949 89.1723 160.161 42.5159 163.023 37.2506L171.188 22.4685C176.16 56.7172 178.643 73.8568 178.64 73.8873L182.661 101.64L187.95 110.236C193.033 108.541 201.661 106.186 210.398 106.186C219.145 106.186 227.832 108.549 232.936 110.242L238.223 101.642L249.678 22.4685L257.674 37.2506ZM210.572 285.86C216.604 285.86 225.194 283.165 227.339 276.018C227.109 276.025 226.887 276.044 226.657 276.044C225.483 276.044 224.385 275.935 223.321 275.791C220.21 280.068 215.362 281.366 210.453 281.366C205.551 281.366 200.713 280.056 197.608 275.786C196.536 275.936 195.426 276.044 194.243 276.044C194.017 276.044 193.799 276.025 193.577 276.018C195.744 283.165 204.45 285.86 210.572 285.86ZM203.509 274.114C205.379 275.499 207.691 276.27 210.457 276.27C213.207 276.27 215.508 275.494 217.376 274.114C215.887 273.46 214.539 272.68 213.35 271.829C212.274 272.143 211.245 272.136 210.451 272.136C209.653 272.136 208.613 272.136 207.529 271.822C206.343 272.68 204.998 273.46 203.509 274.114ZM246.368 220.798C253.779 211.704 264.935 197.056 266.551 192.956C267.77 188.736 265.691 160.756 263.045 137.304L262.9 136.003L265.086 130.177C257.877 122.583 252.847 112.176 249.411 102.349L248.964 105.436L237.582 123.921L233.136 122.05C233.027 122.003 221.421 117.201 210.405 117.201C199.318 117.201 187.9 121.998 187.788 122.046L183.336 123.933L171.94 105.44L171.602 103.071C168.129 112.803 163.094 123.027 155.918 130.456L158.007 136.007L157.861 137.309C155.214 160.756 153.135 188.736 154.395 193.063C155.97 197.063 167.128 211.71 174.535 220.798L175.771 222.316L175.764 224.262C175.764 224.445 175.786 242.436 180.407 254.957C183.762 264.038 191.204 265.009 194.253 265.009C201.916 265.009 205.158 258.062 205.291 257.766C207.087 254.275 207.985 248.54 207.985 240.56H212.617C212.617 246.971 213.583 252.719 215.515 257.803C215.632 258.055 218.956 265.026 226.657 265.026C229.698 265.026 237.143 264.045 240.495 254.964C245.131 242.399 245.137 224.445 245.137 224.269L245.131 222.323L246.368 220.798Z" fill="#333152"/>
<mask id="mask3_14_633" style="mask-type:alpha" maskUnits="userSpaceOnUse" x="193" y="232" width="35" height="24">
<path d="M202.247 250.364C198.121 247.272 193.889 243.371 193.889 240.379C193.889 238.413 197.408 232.354 197.408 232.354H223.58C223.58 232.354 227.013 237.726 227.013 240.379C227.013 243.165 222.741 246.959 218.478 250.05C217.026 247.583 215.18 247.154 214.327 249.099C213.887 250.107 213.8 251.558 214.015 253.076C211.694 254.557 209.997 255.512 209.997 255.512C209.997 255.512 208.687 254.756 206.814 253.539C207.116 251.856 207.058 250.209 206.572 249.099C205.711 247.128 203.828 247.595 202.366 250.151C202.326 250.221 202.286 250.292 202.247 250.364Z" fill="white"/>
</mask>
<g mask="url(#mask3_14_633)">
<path d="M202.248 250.364C198.122 247.272 193.889 243.371 193.889 240.379C193.889 238.413 197.409 232.354 197.409 232.354H223.581C223.581 232.354 227.013 237.726 227.013 240.379C227.013 243.165 222.741 246.959 218.478 250.05C217.027 247.583 215.181 247.154 214.328 249.099C213.887 250.107 213.801 251.558 214.016 253.076C211.694 254.557 209.998 255.512 209.998 255.512C209.998 255.512 208.688 254.756 206.815 253.539C207.117 251.856 207.059 250.209 206.572 249.099C205.712 247.128 203.829 247.595 202.366 250.151C202.326 250.221 202.287 250.292 202.248 250.364Z" fill="#333152"/>
</g>
</g>
<path d="M81.778 238.709C83.2444 238.374 84.2657 237.827 84.8419 237.068C85.4236 236.338 85.6195 235.464 85.4295 234.444C85.2786 233.634 84.8288 232.057 84.0801 229.714C84.0052 229.48 83.7695 228.717 83.3728 227.425C82.9817 226.163 82.6883 225.007 82.4927 223.957C82.012 221.378 82.4244 219.237 83.7297 217.535C85.0295 215.803 86.9911 214.692 89.6146 214.204L92.8713 213.597L94.045 219.896L92.2809 220.225C91.316 220.405 90.6643 220.759 90.326 221.287C89.9821 221.786 89.8912 222.47 90.0533 223.34C90.1818 224.03 90.5791 225.492 91.2451 227.727C92.0586 230.586 92.5492 232.466 92.7169 233.366C93.0299 235.045 92.8922 236.483 92.3038 237.679C91.6908 238.911 90.6009 239.843 89.034 240.477L89.0508 240.567C90.735 240.563 92.0849 241.026 93.1002 241.954C94.0855 242.888 94.7318 244.179 95.0392 245.829C95.2069 246.729 95.4261 248.659 95.6968 251.619C95.8915 254.004 96.0504 255.526 96.1733 256.186C96.3354 257.056 96.6667 257.662 97.1671 258.003C97.6675 258.344 98.4002 258.425 99.3651 258.245L101.129 257.916L102.303 264.216L99.0462 264.823C96.4227 265.311 94.1928 264.982 92.3565 263.834C90.5258 262.717 89.3729 260.883 88.8978 258.333C88.7022 257.283 88.5568 256.084 88.4617 254.737C88.3721 253.419 88.32 252.637 88.3055 252.391C88.1599 249.935 88.0117 248.302 87.8607 247.493C87.6595 246.413 87.1563 245.637 86.3509 245.167C85.5512 244.726 84.4069 244.613 82.9182 244.829L81.778 238.709Z" fill="url(#paint2_linear_14_633)"/>
<path d="M353.656 241.889C352.19 241.553 351.168 241.006 350.592 240.247C350.01 239.518 349.815 238.643 350.005 237.624C350.155 236.814 350.605 235.237 351.354 232.893C351.429 232.659 351.665 231.896 352.061 230.604C352.452 229.342 352.746 228.187 352.941 227.137C353.422 224.557 353.01 222.416 351.704 220.714C350.405 218.982 348.443 217.872 345.819 217.383L342.563 216.776L341.389 223.075L343.153 223.404C344.118 223.584 344.77 223.938 345.108 224.467C345.452 224.965 345.543 225.65 345.381 226.52C345.252 227.209 344.855 228.672 344.189 230.907C343.375 233.766 342.885 235.645 342.717 236.545C342.404 238.225 342.542 239.663 343.13 240.859C343.743 242.09 344.833 243.023 346.4 243.656L346.383 243.746C344.699 243.743 343.349 244.205 342.334 245.133C341.349 246.067 340.702 247.359 340.395 249.009C340.227 249.908 340.008 251.838 339.737 254.799C339.542 257.183 339.384 258.706 339.261 259.366C339.099 260.235 338.767 260.841 338.267 261.182C337.767 261.524 337.034 261.604 336.069 261.425L334.305 261.096L333.131 267.395L336.388 268.002C339.011 268.491 341.241 268.161 343.078 267.014C344.908 265.896 346.061 264.062 346.536 261.513C346.732 260.463 346.877 259.264 346.972 257.916C347.062 256.598 347.114 255.816 347.129 255.571C347.274 253.115 347.422 251.482 347.573 250.672C347.774 249.592 348.278 248.817 349.083 248.346C349.883 247.905 351.027 247.793 352.516 248.008L353.656 241.889Z" fill="url(#paint3_linear_14_633)"/>
<g filter="url(#filter1_d_14_633)">
<path d="M324.027 177.915C325.602 177.619 326.628 176.051 326.32 174.412C326.012 172.773 324.486 171.684 322.911 171.98C321.337 172.276 320.31 173.845 320.619 175.484C320.927 177.122 322.453 178.211 324.027 177.915Z" fill="url(#paint4_linear_14_633)"/>
<path d="M371.99 260.798C373.564 260.502 374.591 258.933 374.283 257.294C373.975 255.655 372.449 254.567 370.874 254.863C369.3 255.159 368.273 256.727 368.581 258.366C368.889 260.005 370.415 261.094 371.99 260.798Z" fill="url(#paint5_linear_14_633)"/>
<path d="M335.271 125.641L332.013 126.253L331.375 122.861C331.263 122.262 330.926 121.73 330.439 121.382C329.952 121.035 329.354 120.9 328.778 121.009C328.202 121.117 327.695 121.459 327.367 121.96C327.039 122.46 326.919 123.078 327.031 123.678L327.669 127.07L324.411 127.682C323.835 127.79 323.327 128.132 322.999 128.633C322.672 129.133 322.551 129.752 322.664 130.351C322.777 130.951 323.113 131.483 323.601 131.83C324.088 132.178 324.685 132.312 325.261 132.204L328.519 131.592L329.156 134.983C329.269 135.583 329.606 136.115 330.093 136.462C330.58 136.81 331.177 136.944 331.754 136.836C332.33 136.727 332.837 136.385 333.165 135.885C333.493 135.384 333.613 134.766 333.501 134.166L332.863 130.775L336.121 130.163C336.697 130.054 337.205 129.712 337.532 129.212C337.86 128.711 337.981 128.093 337.868 127.493C337.755 126.894 337.418 126.361 336.931 126.014C336.444 125.667 335.847 125.532 335.271 125.641Z" fill="#F99048"/>
<path d="M388.353 165.211C388.624 165.062 388.841 164.827 388.972 164.54C389.104 164.253 389.144 163.928 389.086 163.613C389.025 163.299 388.871 163.011 388.644 162.791C388.417 162.572 388.129 162.432 387.823 162.391C384.841 162.051 381.978 160.944 379.493 159.171C377.008 157.398 374.98 155.015 373.592 152.239C373.445 151.956 373.215 151.727 372.937 151.586C372.658 151.445 372.345 151.399 372.043 151.455C371.74 151.513 371.465 151.67 371.257 151.902C371.049 152.135 370.918 152.431 370.884 152.748C370.599 155.839 369.574 158.795 367.902 161.349C366.231 163.904 363.965 165.975 361.311 167.375C361.044 167.526 360.831 167.762 360.702 168.048C360.574 168.334 360.536 168.656 360.595 168.969C360.654 169.281 360.806 169.568 361.03 169.788C361.253 170.008 361.537 170.15 361.841 170.194C364.822 170.535 367.685 171.642 370.17 173.415C372.656 175.188 374.684 177.57 376.072 180.346C376.219 180.63 376.448 180.858 376.727 180.999C377.005 181.14 377.318 181.186 377.621 181.131C377.923 181.072 378.198 180.916 378.406 180.683C378.615 180.451 378.746 180.155 378.78 179.837C379.052 176.743 380.072 173.781 381.745 171.225C383.418 168.668 385.691 166.6 388.353 165.211Z" fill="#4BD6B5"/>
</g>
<path d="M53.2063 173.732C53.5086 173.619 53.7699 173.404 53.9524 173.117C54.1349 172.83 54.2292 172.486 54.2216 172.136C54.2115 171.785 54.1 171.447 53.9032 171.169C53.7064 170.892 53.4346 170.69 53.127 170.592C50.123 169.698 47.3668 167.997 45.1083 165.643C42.8499 163.289 41.1607 160.357 40.1941 157.113C40.0897 156.781 39.892 156.493 39.6293 156.292C39.3667 156.09 39.0528 155.985 38.7331 155.992C38.4135 156.001 38.1053 156.122 37.8532 156.337C37.6011 156.551 37.418 156.848 37.3306 157.185C36.529 160.474 34.99 163.488 32.8532 165.953C30.7165 168.418 28.0496 170.256 25.0947 171.3C24.7959 171.417 24.5387 171.634 24.3597 171.92C24.1806 172.207 24.089 172.548 24.0978 172.896C24.1066 173.244 24.2154 173.581 24.4086 173.858C24.6018 174.135 24.8697 174.339 25.174 174.44C28.1779 175.334 30.9341 177.035 33.1926 179.389C35.451 181.743 37.1402 184.675 38.1068 187.92C38.2112 188.252 38.409 188.539 38.6716 188.741C38.9342 188.942 39.2481 189.047 39.5678 189.04C39.8875 189.031 40.1956 188.91 40.4478 188.696C40.6999 188.481 40.8829 188.184 40.9704 187.848C41.76 184.552 43.2948 181.532 45.4333 179.065C47.5717 176.598 50.2449 174.764 53.2063 173.732Z" fill="#4BD6B5"/>
<path d="M63.8897 219.545C65.4487 219.506 66.6794 218.158 66.6384 216.535C66.5974 214.912 65.3003 213.629 63.7412 213.668C62.1822 213.707 60.9515 215.055 60.9925 216.678C61.0335 218.301 62.3306 219.584 63.8897 219.545Z" fill="url(#paint6_linear_14_633)"/>
<path d="M84.237 172.445C85.7961 172.405 87.0267 171.058 86.9857 169.435C86.9447 167.812 85.6476 166.528 84.0886 166.568C82.5295 166.607 81.2989 167.955 81.3399 169.578C81.3809 171.2 82.678 172.484 84.237 172.445Z" fill="url(#paint7_linear_14_633)"/>
<path d="M86.5862 125.006L83.36 125.087L83.2751 121.729C83.2601 121.135 83.0192 120.571 82.6052 120.162C82.1912 119.752 81.6382 119.53 81.0678 119.544C80.4974 119.559 79.9562 119.808 79.5635 120.239C79.1707 120.669 78.9585 121.244 78.9735 121.838L79.0583 125.196L75.8321 125.277C75.2617 125.292 74.7206 125.542 74.3278 125.972C73.9351 126.402 73.7229 126.977 73.7379 127.571C73.7529 128.164 73.9939 128.728 74.4078 129.138C74.8218 129.548 75.3748 129.77 75.9452 129.755L79.1714 129.674L79.2563 133.032C79.2713 133.626 79.5122 134.19 79.9262 134.599C80.3402 135.009 80.8932 135.231 81.4636 135.217C82.034 135.202 82.5752 134.953 82.9679 134.522C83.3606 134.092 83.5729 133.517 83.5579 132.923L83.473 129.565L86.6993 129.484C87.2697 129.469 87.8108 129.219 88.2035 128.789C88.5963 128.359 88.8085 127.784 88.7935 127.19C88.7785 126.597 88.5375 126.033 88.1236 125.623C87.7096 125.213 87.1566 124.991 86.5862 125.006Z" fill="#F99048"/>
<path fill-rule="evenodd" clip-rule="evenodd" d="M41.5264 312.104C40.8666 311.376 39.9906 311.012 38.8984 311.012C38.2613 311.012 37.6868 311.137 37.1749 311.387C36.6629 311.638 36.2591 311.973 35.9633 312.394V308.008H33.0452V320.636H35.9633V315.466C35.9633 314.829 36.1282 314.334 36.4582 313.981C36.7881 313.628 37.2318 313.452 37.7892 313.452C38.3467 313.452 38.7903 313.628 39.1203 313.981C39.4502 314.334 39.6151 314.829 39.6151 315.466V320.636H42.5162V315.073C42.5162 313.81 42.1862 312.821 41.5264 312.104ZM31.2394 310.995V308.657H21.9732V310.995H25.1473V320.636H28.0653V310.995H31.2394ZM53.8613 315.722C53.8613 315.995 53.8443 316.279 53.8101 316.575H47.206C47.2516 317.167 47.4393 317.622 47.7692 317.94C48.1105 318.247 48.5257 318.401 49.0149 318.401C49.743 318.401 50.2493 318.094 50.5337 317.479H53.6395C53.4802 318.105 53.1901 318.668 52.7692 319.169C52.3596 319.669 51.842 320.062 51.2163 320.346C50.5906 320.631 49.8909 320.773 49.1173 320.773C48.1844 320.773 47.3539 320.574 46.6258 320.176C45.8977 319.777 45.3289 319.209 44.9194 318.469C44.5098 317.73 44.305 316.865 44.305 315.875C44.305 314.886 44.5041 314.021 44.9023 313.281C45.3119 312.542 45.8807 311.973 46.6088 311.575C47.3369 311.177 48.1731 310.978 49.1173 310.978C50.0388 310.978 50.8579 311.171 51.5746 311.558C52.2914 311.945 52.8488 312.496 53.247 313.213C53.6565 313.93 53.8613 314.766 53.8613 315.722ZM50.875 314.954C50.875 314.453 50.7043 314.055 50.363 313.759C50.0217 313.463 49.5951 313.316 49.0832 313.316C48.594 313.316 48.1787 313.458 47.8374 313.742C47.5075 314.027 47.3027 314.43 47.2231 314.954H50.875ZM82.3199 334.047C81.7984 333.086 81.0435 332.358 80.0552 331.864C79.0944 331.343 77.9552 331.082 76.6376 331.082C74.3591 331.082 72.5336 331.837 71.1611 333.347C69.7885 334.829 69.1022 336.819 69.1022 339.317C69.1022 341.98 69.8159 344.066 71.2434 345.576C72.6983 347.059 74.6885 347.8 77.214 347.8C78.9435 347.8 80.3984 347.361 81.5788 346.482C82.7866 345.604 83.665 344.341 84.2141 342.694H75.2787V337.506H90.5965V344.053C90.0749 345.81 89.1827 347.443 87.92 348.953C86.6847 350.463 85.1062 351.684 83.1847 352.617C81.2631 353.551 79.0944 354.017 76.6787 354.017C73.8238 354.017 71.2709 353.4 69.0199 352.164C66.7963 350.902 65.0532 349.159 63.7904 346.935C62.5551 344.711 61.9375 342.172 61.9375 339.317C61.9375 336.462 62.5551 333.923 63.7904 331.7C65.0532 329.449 66.7963 327.706 69.0199 326.47C71.2434 325.207 73.7826 324.576 76.6376 324.576C80.0964 324.576 83.0062 325.413 85.367 327.088C87.7553 328.762 89.3337 331.082 90.1023 334.047H82.3199ZM43.7332 341.5C42.7175 340.182 41.3724 339.345 39.6979 338.988C41.1802 338.549 42.3606 337.766 43.2391 336.641C44.145 335.515 44.5979 334.102 44.5979 332.4C44.5979 330.094 43.7607 328.268 42.0861 326.923C40.4391 325.578 38.1469 324.905 35.2096 324.905H22.1978V353.812H35.6626C38.6822 353.812 41.0293 353.112 42.7038 351.712C44.4058 350.284 45.2567 348.362 45.2567 345.947C45.2567 344.272 44.7489 342.79 43.7332 341.5ZM33.8508 336.6H29.239V330.547H33.8508C35.0037 330.547 35.8822 330.807 36.4861 331.329C37.1175 331.851 37.4332 332.606 37.4332 333.594C37.4332 334.582 37.1175 335.337 36.4861 335.858C35.8822 336.353 35.0037 336.6 33.8508 336.6ZM37.1449 347.347C36.5136 347.868 35.6077 348.129 34.4273 348.129H29.239V341.747H34.3449C35.5253 341.747 36.4449 342.035 37.1038 342.611C37.79 343.188 38.1332 343.984 38.1332 345C38.1332 346.015 37.8038 346.798 37.1449 347.347ZM57.2054 353.812V324.905H50.1642V353.812H57.2054ZM114.618 324.27V329.911H102.841V336.005H111.653V341.481H102.841V353.176H95.7998V324.27H114.618ZM126.183 324.27V353.176H119.142V324.27H126.183ZM143.927 344.323L149.815 353.176H158.009L148.456 338.846L157.639 324.27H149.651L144.545 332.999L138.739 324.27H130.545L140.015 338.476L130.75 353.176H138.739L143.927 344.323Z" fill="url(#paint8_linear_14_633)"/>
</g>
<defs>
<filter id="filter0_d_14_633" x="109.945" y="210.359" width="217.867" height="75.7306" filterUnits="userSpaceOnUse" color-interpolation-filters="sRGB">
<feFlood flood-opacity="0" result="BackgroundImageFix"/>
<feColorMatrix in="SourceAlpha" type="matrix" values="0 0 0 0 0 0 0 0 0 0 0 0 0 0 0 0 0 0 127 0" result="hardAlpha"/>
<feOffset dy="6.85617"/>
<feGaussianBlur stdDeviation="4.79932"/>
<feComposite in2="hardAlpha" operator="out"/>
<feColorMatrix type="matrix" values="0 0 0 0 0.129412 0 0 0 0 0.129412 0 0 0 0 0.298039 0 0 0 0.3 0"/>
<feBlend mode="normal" in2="BackgroundImageFix" result="effect1_dropShadow_14_633"/>
<feBlend mode="normal" in="SourceGraphic" in2="effect1_dropShadow_14_633" result="shape"/>
</filter>
<filter id="filter1_d_14_633" x="308.823" y="112.167" width="92.0292" height="163.356" filterUnits="userSpaceOnUse" color-interpolation-filters="sRGB">
<feFlood flood-opacity="0" result="BackgroundImageFix"/>
<feColorMatrix in="SourceAlpha" type="matrix" values="0 0 0 0 0 0 0 0 0 0 0 0 0 0 0 0 0 0 127 0" result="hardAlpha"/>
<feOffset dy="2.93517"/>
<feGaussianBlur stdDeviation="5.87033"/>
<feComposite in2="hardAlpha" operator="out"/>
<feColorMatrix type="matrix" values="0 0 0 0 0.129412 0 0 0 0 0.129412 0 0 0 0 0.298039 0 0 0 0.2 0"/>
<feBlend mode="normal" in2="BackgroundImageFix" result="effect1_dropShadow_14_633"/>
<feBlend mode="normal" in="SourceGraphic" in2="effect1_dropShadow_14_633" result="shape"/>
</filter>
<linearGradient id="paint0_linear_14_633" x1="-83.5343" y1="23" x2="526.751" y2="309.822" gradientUnits="userSpaceOnUse">
<stop stop-color="#FF78E1"/>
<stop offset="1" stop-color="#D54570"/>
</linearGradient>
<linearGradient id="paint1_linear_14_633" x1="238.208" y1="198.751" x2="237.596" y2="272.403" gradientUnits="userSpaceOnUse">
<stop stop-color="#FFE792"/>
<stop offset="1" stop-color="#D54570"/>
</linearGradient>
<linearGradient id="paint2_linear_14_633" x1="102.303" y1="264.216" x2="83.0905" y2="266.32" gradientUnits="userSpaceOnUse">
<stop stop-color="#FF78E1"/>
<stop offset="1" stop-color="#D54570"/>
</linearGradient>
<linearGradient id="paint3_linear_14_633" x1="333.131" y1="267.395" x2="352.344" y2="269.499" gradientUnits="userSpaceOnUse">
<stop stop-color="#FF78E1"/>
<stop offset="1" stop-color="#D54570"/>
</linearGradient>
<linearGradient id="paint4_linear_14_633" x1="322.284" y1="173.567" x2="325.419" y2="174.659" gradientUnits="userSpaceOnUse">
<stop stop-color="#FFEEB3"/>
<stop offset="0.450942" stop-color="#FFD39A"/>
<stop offset="1" stop-color="#F99048"/>
</linearGradient>
<linearGradient id="paint5_linear_14_633" x1="370.247" y1="256.45" x2="373.382" y2="257.541" gradientUnits="userSpaceOnUse">
<stop stop-color="#FFEEB3"/>
<stop offset="0.450942" stop-color="#FFD39A"/>
<stop offset="1" stop-color="#F99048"/>
</linearGradient>
<linearGradient id="paint6_linear_14_633" x1="62.8916" y1="215.095" x2="65.7342" y2="216.632" gradientUnits="userSpaceOnUse">
<stop stop-color="#FFEEB3"/>
<stop offset="0.450942" stop-color="#FFD39A"/>
<stop offset="1" stop-color="#F99048"/>
</linearGradient>
<linearGradient id="paint7_linear_14_633" x1="83.2389" y1="167.995" x2="86.0815" y2="169.532" gradientUnits="userSpaceOnUse">
<stop stop-color="#FFEEB3"/>
<stop offset="0.450942" stop-color="#FFD39A"/>
<stop offset="1" stop-color="#F99048"/>
</linearGradient>
<linearGradient id="paint8_linear_14_633" x1="158.009" y1="354.017" x2="113.631" y2="263.213" gradientUnits="userSpaceOnUse">
<stop stop-color="#E555AC"/>
<stop offset="1" stop-color="#F99048"/>
</linearGradient>
</defs>
</svg>
